<mxfile host="Electron" agent="Mozilla/5.0 (Windows NT 10.0; Win64; x64) AppleWebKit/537.36 (KHTML, like Gecko) draw.io/26.0.9 Chrome/128.0.6613.186 Electron/32.2.5 Safari/537.36" version="26.0.9" pages="3">
  <diagram id="QJB4taHwHtR-wv6VzhzJ" name="Алгоритм">
    <mxGraphModel dx="1160" dy="682" grid="1" gridSize="10" guides="1" tooltips="1" connect="1" arrows="1" fold="1" page="1" pageScale="1" pageWidth="1169" pageHeight="827" math="0" shadow="0">
      <root>
        <mxCell id="0" />
        <mxCell id="1" parent="0" />
        <mxCell id="Af2-QVtfbNUbzytxAVL3-1" style="edgeStyle=orthogonalEdgeStyle;rounded=0;orthogonalLoop=1;jettySize=auto;html=1;exitX=0.5;exitY=1;exitDx=0;exitDy=0;" parent="1" source="Nfa2C4TvEYvTRk9tixpo-1" target="yQFWL27wt-V4wLsJAEfB-1" edge="1">
          <mxGeometry relative="1" as="geometry" />
        </mxCell>
        <UserObject label="Основные функции&#xa; управляющей схемы" link="data:page/id,MwCPtWA9UEZSM_SASeTj" id="Nfa2C4TvEYvTRk9tixpo-1">
          <mxCell style="fontColor=#f0f0ee;fontStyle=4;rounded=1;overflow=hidden;spacing=10;fontSize=16;" parent="1" vertex="1">
            <mxGeometry x="350" y="215" width="210" height="85" as="geometry" />
          </mxCell>
        </UserObject>
        <mxCell id="Af2-QVtfbNUbzytxAVL3-3" style="edgeStyle=orthogonalEdgeStyle;rounded=0;orthogonalLoop=1;jettySize=auto;html=1;exitX=0.5;exitY=1;exitDx=0;exitDy=0;entryX=0.5;entryY=0;entryDx=0;entryDy=0;" parent="1" source="yQFWL27wt-V4wLsJAEfB-1" target="Af2-QVtfbNUbzytxAVL3-2" edge="1">
          <mxGeometry relative="1" as="geometry" />
        </mxCell>
        <UserObject label="Последовательность управления &#xa;процессом зарядки" link="data:page/id,L5ey7sO-qDmW8-c1sars" id="yQFWL27wt-V4wLsJAEfB-1">
          <mxCell style="fontColor=#FFFFFF;fontStyle=4;rounded=1;overflow=hidden;spacing=10;fontSize=16;" parent="1" vertex="1">
            <mxGeometry x="305" y="440" width="300" height="60" as="geometry" />
          </mxCell>
        </UserObject>
        <UserObject label="Последовательность управления &#xa;зарядным соединением&#xa;" link="data:page/id,jlpVMlnfjhharY4AUNNq" id="Af2-QVtfbNUbzytxAVL3-2">
          <mxCell style="fontColor=#FFFFFF;fontStyle=4;rounded=1;overflow=hidden;spacing=10;fontSize=16;" parent="1" vertex="1">
            <mxGeometry x="305" y="640" width="300" height="60" as="geometry" />
          </mxCell>
        </UserObject>
      </root>
    </mxGraphModel>
  </diagram>
  <diagram id="MwCPtWA9UEZSM_SASeTj" name="Основные функции управляющей схемы">
    <mxGraphModel dx="2109" dy="2067" grid="1" gridSize="10" guides="1" tooltips="1" connect="1" arrows="1" fold="1" page="1" pageScale="1" pageWidth="1169" pageHeight="827" math="0" shadow="0">
      <root>
        <mxCell id="0" />
        <mxCell id="1" parent="0" />
        <mxCell id="HY4NZZImtix1cZzdAubG-1" style="edgeStyle=orthogonalEdgeStyle;rounded=0;orthogonalLoop=1;jettySize=auto;html=1;exitX=0.5;exitY=1;exitDx=0;exitDy=0;entryX=0.5;entryY=0;entryDx=0;entryDy=0;" parent="1" source="HY4NZZImtix1cZzdAubG-3" target="HY4NZZImtix1cZzdAubG-6" edge="1">
          <mxGeometry relative="1" as="geometry">
            <mxPoint x="830" y="230" as="targetPoint" />
          </mxGeometry>
        </mxCell>
        <mxCell id="HY4NZZImtix1cZzdAubG-2" value="Да" style="edgeLabel;html=1;align=center;verticalAlign=middle;resizable=0;points=[];" parent="HY4NZZImtix1cZzdAubG-1" vertex="1" connectable="0">
          <mxGeometry x="-0.0402" y="-1" relative="1" as="geometry">
            <mxPoint as="offset" />
          </mxGeometry>
        </mxCell>
        <mxCell id="HY4NZZImtix1cZzdAubG-3" value="Провека: полностью ли соединен разъем ЭТС с входом ЭТС" style="rhombus;whiteSpace=wrap;html=1;" parent="1" vertex="1">
          <mxGeometry x="880" y="-80" width="230" height="150" as="geometry" />
        </mxCell>
        <mxCell id="HY4NZZImtix1cZzdAubG-4" style="edgeStyle=orthogonalEdgeStyle;rounded=0;orthogonalLoop=1;jettySize=auto;html=1;exitX=0.5;exitY=1;exitDx=0;exitDy=0;" parent="1" source="HY4NZZImtix1cZzdAubG-6" target="HY4NZZImtix1cZzdAubG-11" edge="1">
          <mxGeometry relative="1" as="geometry">
            <Array as="points">
              <mxPoint x="995" y="270" />
            </Array>
          </mxGeometry>
        </mxCell>
        <mxCell id="HY4NZZImtix1cZzdAubG-5" value="Да" style="edgeLabel;html=1;align=center;verticalAlign=middle;resizable=0;points=[];" parent="HY4NZZImtix1cZzdAubG-4" vertex="1" connectable="0">
          <mxGeometry x="0.0015" y="-2" relative="1" as="geometry">
            <mxPoint as="offset" />
          </mxGeometry>
        </mxCell>
        <mxCell id="HY4NZZImtix1cZzdAubG-6" value="Оснащено ли входное устройство ЭТС электронным замком?" style="rhombus;whiteSpace=wrap;html=1;" parent="1" vertex="1">
          <mxGeometry x="890" y="160" width="210" height="110" as="geometry" />
        </mxCell>
        <mxCell id="HY4NZZImtix1cZzdAubG-7" style="edgeStyle=orthogonalEdgeStyle;rounded=0;orthogonalLoop=1;jettySize=auto;html=1;exitX=0.5;exitY=1;exitDx=0;exitDy=0;entryX=0.5;entryY=0;entryDx=0;entryDy=0;" parent="1" source="HY4NZZImtix1cZzdAubG-8" target="HY4NZZImtix1cZzdAubG-16" edge="1">
          <mxGeometry relative="1" as="geometry" />
        </mxCell>
        <mxCell id="HY4NZZImtix1cZzdAubG-8" value="Электронный замок блокируем разъем ЭТС до подачи питания (замыкание К1 и К2) и сохраняет состояние блокировки в течение всего процесса зарядки (сост.3)" style="whiteSpace=wrap;html=1;" parent="1" vertex="1">
          <mxGeometry x="885" y="525" width="220" height="90" as="geometry" />
        </mxCell>
        <mxCell id="HY4NZZImtix1cZzdAubG-9" style="edgeStyle=orthogonalEdgeStyle;rounded=0;orthogonalLoop=1;jettySize=auto;html=1;exitX=0.5;exitY=1;exitDx=0;exitDy=0;entryX=0.5;entryY=0;entryDx=0;entryDy=0;" parent="1" source="HY4NZZImtix1cZzdAubG-11" target="HY4NZZImtix1cZzdAubG-8" edge="1">
          <mxGeometry relative="1" as="geometry" />
        </mxCell>
        <mxCell id="HY4NZZImtix1cZzdAubG-10" value="Да" style="edgeLabel;html=1;align=center;verticalAlign=middle;resizable=0;points=[];" parent="HY4NZZImtix1cZzdAubG-9" vertex="1" connectable="0">
          <mxGeometry x="-0.2238" y="1" relative="1" as="geometry">
            <mxPoint as="offset" />
          </mxGeometry>
        </mxCell>
        <mxCell id="HY4NZZImtix1cZzdAubG-11" value="Блокировка произведена успешно?" style="rhombus;whiteSpace=wrap;html=1;" parent="1" vertex="1">
          <mxGeometry x="940" y="380" width="110" height="90" as="geometry" />
        </mxCell>
        <mxCell id="0XICausg2heWxczJPKEi-3" style="edgeStyle=orthogonalEdgeStyle;rounded=0;orthogonalLoop=1;jettySize=auto;html=1;exitX=1;exitY=0.5;exitDx=0;exitDy=0;" parent="1" source="HY4NZZImtix1cZzdAubG-12" edge="1">
          <mxGeometry relative="1" as="geometry">
            <mxPoint x="1380" y="435.1111111111111" as="targetPoint" />
          </mxGeometry>
        </mxCell>
        <mxCell id="HY4NZZImtix1cZzdAubG-12" value="Продолжение процесса зарядки / сообщение оператору / прекратить процесс зарядки" style="whiteSpace=wrap;html=1;" parent="1" vertex="1">
          <mxGeometry x="1170" y="395" width="130" height="80" as="geometry" />
        </mxCell>
        <mxCell id="HY4NZZImtix1cZzdAubG-13" style="edgeStyle=orthogonalEdgeStyle;rounded=0;orthogonalLoop=1;jettySize=auto;html=1;exitX=1;exitY=0.5;exitDx=0;exitDy=0;entryX=0;entryY=0.377;entryDx=0;entryDy=0;entryPerimeter=0;" parent="1" source="HY4NZZImtix1cZzdAubG-11" target="HY4NZZImtix1cZzdAubG-12" edge="1">
          <mxGeometry relative="1" as="geometry" />
        </mxCell>
        <mxCell id="HY4NZZImtix1cZzdAubG-14" value="Нет" style="edgeLabel;html=1;align=center;verticalAlign=middle;resizable=0;points=[];" parent="HY4NZZImtix1cZzdAubG-13" vertex="1" connectable="0">
          <mxGeometry x="-0.0894" y="-2" relative="1" as="geometry">
            <mxPoint as="offset" />
          </mxGeometry>
        </mxCell>
        <mxCell id="HY4NZZImtix1cZzdAubG-15" style="edgeStyle=orthogonalEdgeStyle;rounded=0;orthogonalLoop=1;jettySize=auto;html=1;exitX=0.5;exitY=1;exitDx=0;exitDy=0;entryX=0.5;entryY=0;entryDx=0;entryDy=0;" parent="1" source="HY4NZZImtix1cZzdAubG-16" target="HY4NZZImtix1cZzdAubG-22" edge="1">
          <mxGeometry relative="1" as="geometry" />
        </mxCell>
        <mxCell id="HY4NZZImtix1cZzdAubG-16" value="ЭБУ определяет, полностью ли подключен штекер к&amp;nbsp;&lt;div&gt;розетке, измеряя напряжение в точке 1 или 4&lt;/div&gt;" style="rhombus;whiteSpace=wrap;html=1;" parent="1" vertex="1">
          <mxGeometry x="805" y="670" width="380" height="130" as="geometry" />
        </mxCell>
        <mxCell id="HY4NZZImtix1cZzdAubG-17" style="edgeStyle=orthogonalEdgeStyle;rounded=0;orthogonalLoop=1;jettySize=auto;html=1;exitX=0.5;exitY=1;exitDx=0;exitDy=0;entryX=0.998;entryY=0.643;entryDx=0;entryDy=0;entryPerimeter=0;" parent="1" source="HY4NZZImtix1cZzdAubG-12" target="HY4NZZImtix1cZzdAubG-8" edge="1">
          <mxGeometry relative="1" as="geometry" />
        </mxCell>
        <mxCell id="HY4NZZImtix1cZzdAubG-18" style="edgeStyle=orthogonalEdgeStyle;rounded=0;orthogonalLoop=1;jettySize=auto;html=1;exitX=0.5;exitY=1;exitDx=0;exitDy=0;entryX=0.5;entryY=0;entryDx=0;entryDy=0;" parent="1" source="HY4NZZImtix1cZzdAubG-22" target="HY4NZZImtix1cZzdAubG-23" edge="1">
          <mxGeometry relative="1" as="geometry" />
        </mxCell>
        <mxCell id="HY4NZZImtix1cZzdAubG-19" value="Да" style="edgeLabel;html=1;align=center;verticalAlign=middle;resizable=0;points=[];" parent="HY4NZZImtix1cZzdAubG-18" vertex="1" connectable="0">
          <mxGeometry x="-0.3486" y="-1" relative="1" as="geometry">
            <mxPoint as="offset" />
          </mxGeometry>
        </mxCell>
        <mxCell id="HY4NZZImtix1cZzdAubG-20" style="edgeStyle=orthogonalEdgeStyle;rounded=0;orthogonalLoop=1;jettySize=auto;html=1;exitX=1;exitY=0.5;exitDx=0;exitDy=0;entryX=0;entryY=0.5;entryDx=0;entryDy=0;" parent="1" source="HY4NZZImtix1cZzdAubG-22" target="HY4NZZImtix1cZzdAubG-24" edge="1">
          <mxGeometry relative="1" as="geometry" />
        </mxCell>
        <mxCell id="HY4NZZImtix1cZzdAubG-21" value="Нет" style="edgeLabel;html=1;align=center;verticalAlign=middle;resizable=0;points=[];" parent="HY4NZZImtix1cZzdAubG-20" vertex="1" connectable="0">
          <mxGeometry x="-0.1249" y="1" relative="1" as="geometry">
            <mxPoint as="offset" />
          </mxGeometry>
        </mxCell>
        <mxCell id="HY4NZZImtix1cZzdAubG-22" value="Оснащена ли розетка&lt;div&gt;&lt;span style=&quot;background-color: initial;&quot;&gt;&amp;nbsp;электронным замком?&lt;/span&gt;&lt;/div&gt;" style="rhombus;whiteSpace=wrap;html=1;" parent="1" vertex="1">
          <mxGeometry x="875" y="850" width="240" height="80" as="geometry" />
        </mxCell>
        <mxCell id="3Hwd2_8TF0gxeMJ1gKl8-174" style="edgeStyle=orthogonalEdgeStyle;rounded=0;orthogonalLoop=1;jettySize=auto;html=1;exitX=0.5;exitY=1;exitDx=0;exitDy=0;" parent="1" source="HY4NZZImtix1cZzdAubG-23" target="3Hwd2_8TF0gxeMJ1gKl8-84" edge="1">
          <mxGeometry relative="1" as="geometry">
            <Array as="points">
              <mxPoint x="995" y="1660" />
              <mxPoint x="995" y="1660" />
            </Array>
          </mxGeometry>
        </mxCell>
        <mxCell id="HY4NZZImtix1cZzdAubG-23" value="Электронный замок блокирует вилку перед подачей напряжения (замыкание К1 и К2) и сохраняет состояние блокировки в течение всего процесса зарядки (сост. 3)" style="whiteSpace=wrap;html=1;" parent="1" vertex="1">
          <mxGeometry x="880" y="1040" width="230" height="100" as="geometry" />
        </mxCell>
        <mxCell id="0XICausg2heWxczJPKEi-1" style="edgeStyle=orthogonalEdgeStyle;rounded=0;orthogonalLoop=1;jettySize=auto;html=1;exitX=0.5;exitY=0;exitDx=0;exitDy=0;entryX=1;entryY=0.5;entryDx=0;entryDy=0;" parent="1" source="HY4NZZImtix1cZzdAubG-24" target="HY4NZZImtix1cZzdAubG-3" edge="1">
          <mxGeometry relative="1" as="geometry">
            <Array as="points">
              <mxPoint x="1380" y="860" />
              <mxPoint x="1380" y="-5" />
            </Array>
          </mxGeometry>
        </mxCell>
        <mxCell id="0XICausg2heWxczJPKEi-4" style="edgeStyle=orthogonalEdgeStyle;rounded=0;orthogonalLoop=1;jettySize=auto;html=1;exitX=0.5;exitY=0;exitDx=0;exitDy=0;" parent="1" source="HY4NZZImtix1cZzdAubG-24" edge="1">
          <mxGeometry relative="1" as="geometry">
            <mxPoint x="1379.7777777777778" y="690" as="targetPoint" />
          </mxGeometry>
        </mxCell>
        <mxCell id="HY4NZZImtix1cZzdAubG-24" value="Прерывание процесса зарядки и уведомление оператору" style="whiteSpace=wrap;html=1;" parent="1" vertex="1">
          <mxGeometry x="1320" y="860" width="120" height="60" as="geometry" />
        </mxCell>
        <mxCell id="3Hwd2_8TF0gxeMJ1gKl8-84" value="ЭБУ проверяет номинальную мощность кабеля измерением оспротивление между точками 3 и PE и максимальный ток питания оборудования измерением рабочего цикла ШИМ-сигнала в точке 2" style="whiteSpace=wrap;html=1;" parent="1" vertex="1">
          <mxGeometry x="870" y="1770" width="300" height="150" as="geometry" />
        </mxCell>
        <mxCell id="3Hwd2_8TF0gxeMJ1gKl8-85" value="Зарядка запрещена" style="rounded=1;whiteSpace=wrap;html=1;" parent="1" vertex="1">
          <mxGeometry x="635" y="2852" width="70" height="60" as="geometry" />
        </mxCell>
        <mxCell id="3Hwd2_8TF0gxeMJ1gKl8-86" value="Ожидание цифровой коммуникации" style="rounded=1;whiteSpace=wrap;html=1;" parent="1" vertex="1">
          <mxGeometry x="725" y="2852" width="90" height="60" as="geometry" />
        </mxCell>
        <mxCell id="3Hwd2_8TF0gxeMJ1gKl8-87" value="Зарядка запрещена" style="rounded=1;whiteSpace=wrap;html=1;" parent="1" vertex="1">
          <mxGeometry x="855" y="2852" width="70" height="60" as="geometry" />
        </mxCell>
        <mxCell id="3Hwd2_8TF0gxeMJ1gKl8-88" value="Зарядка запрещена" style="rounded=1;whiteSpace=wrap;html=1;" parent="1" vertex="1">
          <mxGeometry x="1522" y="2852" width="70" height="60" as="geometry" />
        </mxCell>
        <mxCell id="3Hwd2_8TF0gxeMJ1gKl8-89" value="Ток зарядки =&amp;nbsp;&lt;div&gt;(% цикла*100)*0,6 А&lt;/div&gt;" style="rounded=1;whiteSpace=wrap;html=1;" parent="1" vertex="1">
          <mxGeometry x="1095" y="2854.5" width="115" height="55" as="geometry" />
        </mxCell>
        <mxCell id="3Hwd2_8TF0gxeMJ1gKl8-90" value="Ток зарядки =&amp;nbsp;&lt;div&gt;(% цикла*100 - 64)*2,5 А&lt;/div&gt;" style="rounded=1;whiteSpace=wrap;html=1;" parent="1" vertex="1">
          <mxGeometry x="1225" y="2852" width="140" height="60" as="geometry" />
        </mxCell>
        <mxCell id="3Hwd2_8TF0gxeMJ1gKl8-91" value="Ток зарядки = 6 А" style="rounded=1;whiteSpace=wrap;html=1;" parent="1" vertex="1">
          <mxGeometry x="965" y="2857" width="110" height="50" as="geometry" />
        </mxCell>
        <mxCell id="3Hwd2_8TF0gxeMJ1gKl8-92" value="Зарезервированно (зарядка запрещена)" style="rounded=1;whiteSpace=wrap;html=1;" parent="1" vertex="1">
          <mxGeometry x="1375" y="2852" width="130" height="60" as="geometry" />
        </mxCell>
        <mxCell id="3Hwd2_8TF0gxeMJ1gKl8-93" value="" style="endArrow=classic;html=1;rounded=0;exitX=0.5;exitY=1;exitDx=0;exitDy=0;entryX=0.5;entryY=0;entryDx=0;entryDy=0;" parent="1" target="3Hwd2_8TF0gxeMJ1gKl8-85" edge="1">
          <mxGeometry width="50" height="50" relative="1" as="geometry">
            <mxPoint x="1040" y="2742" as="sourcePoint" />
            <mxPoint x="1165" y="2872" as="targetPoint" />
            <Array as="points">
              <mxPoint x="670" y="2742" />
            </Array>
          </mxGeometry>
        </mxCell>
        <mxCell id="3Hwd2_8TF0gxeMJ1gKl8-94" value="До 3%" style="edgeLabel;html=1;align=center;verticalAlign=middle;resizable=0;points=[];" parent="3Hwd2_8TF0gxeMJ1gKl8-93" vertex="1" connectable="0">
          <mxGeometry x="0.8167" y="-2" relative="1" as="geometry">
            <mxPoint as="offset" />
          </mxGeometry>
        </mxCell>
        <mxCell id="3Hwd2_8TF0gxeMJ1gKl8-95" value="" style="endArrow=classic;html=1;rounded=0;entryX=0.5;entryY=0;entryDx=0;entryDy=0;exitX=0.5;exitY=1;exitDx=0;exitDy=0;" parent="1" target="3Hwd2_8TF0gxeMJ1gKl8-86" edge="1">
          <mxGeometry width="50" height="50" relative="1" as="geometry">
            <mxPoint x="1040" y="2742" as="sourcePoint" />
            <mxPoint x="1165" y="2872" as="targetPoint" />
            <Array as="points">
              <mxPoint x="780" y="2772" />
            </Array>
          </mxGeometry>
        </mxCell>
        <mxCell id="3Hwd2_8TF0gxeMJ1gKl8-96" value="3% - 7%" style="edgeLabel;html=1;align=center;verticalAlign=middle;resizable=0;points=[];" parent="3Hwd2_8TF0gxeMJ1gKl8-95" vertex="1" connectable="0">
          <mxGeometry x="0.76" y="-2" relative="1" as="geometry">
            <mxPoint as="offset" />
          </mxGeometry>
        </mxCell>
        <mxCell id="3Hwd2_8TF0gxeMJ1gKl8-97" value="" style="endArrow=classic;html=1;rounded=0;exitX=0.5;exitY=1;exitDx=0;exitDy=0;entryX=0.5;entryY=0;entryDx=0;entryDy=0;" parent="1" target="3Hwd2_8TF0gxeMJ1gKl8-87" edge="1">
          <mxGeometry width="50" height="50" relative="1" as="geometry">
            <mxPoint x="1040" y="2742" as="sourcePoint" />
            <mxPoint x="1165" y="2672" as="targetPoint" />
            <Array as="points">
              <mxPoint x="890" y="2792" />
            </Array>
          </mxGeometry>
        </mxCell>
        <mxCell id="3Hwd2_8TF0gxeMJ1gKl8-98" value="7% - 8%" style="edgeLabel;html=1;align=center;verticalAlign=middle;resizable=0;points=[];" parent="3Hwd2_8TF0gxeMJ1gKl8-97" vertex="1" connectable="0">
          <mxGeometry x="0.6332" relative="1" as="geometry">
            <mxPoint as="offset" />
          </mxGeometry>
        </mxCell>
        <mxCell id="3Hwd2_8TF0gxeMJ1gKl8-99" value="" style="endArrow=classic;html=1;rounded=0;exitX=0.5;exitY=1;exitDx=0;exitDy=0;entryX=0.5;entryY=0;entryDx=0;entryDy=0;" parent="1" target="3Hwd2_8TF0gxeMJ1gKl8-91" edge="1">
          <mxGeometry width="50" height="50" relative="1" as="geometry">
            <mxPoint x="1040" y="2742" as="sourcePoint" />
            <mxPoint x="1165" y="2672" as="targetPoint" />
            <Array as="points">
              <mxPoint x="1020" y="2802" />
            </Array>
          </mxGeometry>
        </mxCell>
        <mxCell id="3Hwd2_8TF0gxeMJ1gKl8-100" value="8% - 10%" style="edgeLabel;html=1;align=center;verticalAlign=middle;resizable=0;points=[];" parent="3Hwd2_8TF0gxeMJ1gKl8-99" vertex="1" connectable="0">
          <mxGeometry x="0.3404" relative="1" as="geometry">
            <mxPoint x="5" as="offset" />
          </mxGeometry>
        </mxCell>
        <mxCell id="3Hwd2_8TF0gxeMJ1gKl8-101" value="" style="endArrow=classic;html=1;rounded=0;exitX=0.5;exitY=1;exitDx=0;exitDy=0;entryX=0.5;entryY=0;entryDx=0;entryDy=0;" parent="1" target="3Hwd2_8TF0gxeMJ1gKl8-89" edge="1">
          <mxGeometry width="50" height="50" relative="1" as="geometry">
            <mxPoint x="1040" y="2742" as="sourcePoint" />
            <mxPoint x="1165" y="2672" as="targetPoint" />
            <Array as="points">
              <mxPoint x="1145" y="2802" />
            </Array>
          </mxGeometry>
        </mxCell>
        <mxCell id="3Hwd2_8TF0gxeMJ1gKl8-102" value="10% - 85%" style="edgeLabel;html=1;align=center;verticalAlign=middle;resizable=0;points=[];" parent="3Hwd2_8TF0gxeMJ1gKl8-101" vertex="1" connectable="0">
          <mxGeometry x="0.5644" y="3" relative="1" as="geometry">
            <mxPoint as="offset" />
          </mxGeometry>
        </mxCell>
        <mxCell id="3Hwd2_8TF0gxeMJ1gKl8-103" value="" style="endArrow=classic;html=1;rounded=0;exitX=0.5;exitY=1;exitDx=0;exitDy=0;entryX=0.5;entryY=0;entryDx=0;entryDy=0;" parent="1" target="3Hwd2_8TF0gxeMJ1gKl8-90" edge="1">
          <mxGeometry width="50" height="50" relative="1" as="geometry">
            <mxPoint x="1040" y="2742" as="sourcePoint" />
            <mxPoint x="1165" y="2672" as="targetPoint" />
            <Array as="points">
              <mxPoint x="1295" y="2792" />
            </Array>
          </mxGeometry>
        </mxCell>
        <mxCell id="3Hwd2_8TF0gxeMJ1gKl8-104" value="85% - 90%" style="edgeLabel;html=1;align=center;verticalAlign=middle;resizable=0;points=[];" parent="3Hwd2_8TF0gxeMJ1gKl8-103" vertex="1" connectable="0">
          <mxGeometry x="0.7436" relative="1" as="geometry">
            <mxPoint as="offset" />
          </mxGeometry>
        </mxCell>
        <mxCell id="3Hwd2_8TF0gxeMJ1gKl8-105" value="" style="endArrow=classic;html=1;rounded=0;exitX=0.5;exitY=1;exitDx=0;exitDy=0;entryX=0.5;entryY=0;entryDx=0;entryDy=0;" parent="1" target="3Hwd2_8TF0gxeMJ1gKl8-92" edge="1">
          <mxGeometry width="50" height="50" relative="1" as="geometry">
            <mxPoint x="1040" y="2742" as="sourcePoint" />
            <mxPoint x="1165" y="2672" as="targetPoint" />
            <Array as="points">
              <mxPoint x="1435" y="2772" />
            </Array>
          </mxGeometry>
        </mxCell>
        <mxCell id="3Hwd2_8TF0gxeMJ1gKl8-106" value="90% - 97%" style="edgeLabel;html=1;align=center;verticalAlign=middle;resizable=0;points=[];" parent="3Hwd2_8TF0gxeMJ1gKl8-105" vertex="1" connectable="0">
          <mxGeometry x="0.8236" relative="1" as="geometry">
            <mxPoint as="offset" />
          </mxGeometry>
        </mxCell>
        <mxCell id="3Hwd2_8TF0gxeMJ1gKl8-107" value="" style="endArrow=classic;html=1;rounded=0;exitX=0.5;exitY=1;exitDx=0;exitDy=0;entryX=0.5;entryY=0;entryDx=0;entryDy=0;" parent="1" target="3Hwd2_8TF0gxeMJ1gKl8-88" edge="1">
          <mxGeometry width="50" height="50" relative="1" as="geometry">
            <mxPoint x="1040" y="2742" as="sourcePoint" />
            <mxPoint x="1165" y="2672" as="targetPoint" />
            <Array as="points">
              <mxPoint x="1557" y="2742" />
            </Array>
          </mxGeometry>
        </mxCell>
        <mxCell id="3Hwd2_8TF0gxeMJ1gKl8-108" value="Больше 97%" style="edgeLabel;html=1;align=center;verticalAlign=middle;resizable=0;points=[];" parent="3Hwd2_8TF0gxeMJ1gKl8-107" vertex="1" connectable="0">
          <mxGeometry x="0.8533" relative="1" as="geometry">
            <mxPoint as="offset" />
          </mxGeometry>
        </mxCell>
        <mxCell id="3Hwd2_8TF0gxeMJ1gKl8-109" value="" style="endArrow=none;html=1;rounded=0;exitX=0.5;exitY=1;exitDx=0;exitDy=0;entryX=0;entryY=0.5;entryDx=0;entryDy=0;" parent="1" source="3Hwd2_8TF0gxeMJ1gKl8-85" target="3Hwd2_8TF0gxeMJ1gKl8-122" edge="1">
          <mxGeometry width="50" height="50" relative="1" as="geometry">
            <mxPoint x="975" y="2812" as="sourcePoint" />
            <mxPoint x="995" y="2692" as="targetPoint" />
            <Array as="points">
              <mxPoint x="670" y="2932" />
              <mxPoint x="615" y="2932" />
              <mxPoint x="615" y="2692" />
            </Array>
          </mxGeometry>
        </mxCell>
        <mxCell id="3Hwd2_8TF0gxeMJ1gKl8-110" value="" style="endArrow=none;html=1;rounded=0;exitX=0.5;exitY=1;exitDx=0;exitDy=0;" parent="1" source="3Hwd2_8TF0gxeMJ1gKl8-87" edge="1">
          <mxGeometry width="50" height="50" relative="1" as="geometry">
            <mxPoint x="975" y="2812" as="sourcePoint" />
            <mxPoint x="835" y="2692" as="targetPoint" />
            <Array as="points">
              <mxPoint x="890" y="2932" />
              <mxPoint x="835" y="2932" />
            </Array>
          </mxGeometry>
        </mxCell>
        <mxCell id="3Hwd2_8TF0gxeMJ1gKl8-111" value="" style="endArrow=none;html=1;rounded=0;exitX=0.5;exitY=1;exitDx=0;exitDy=0;entryX=1;entryY=0.5;entryDx=0;entryDy=0;" parent="1" source="3Hwd2_8TF0gxeMJ1gKl8-88" target="3Hwd2_8TF0gxeMJ1gKl8-122" edge="1">
          <mxGeometry width="50" height="50" relative="1" as="geometry">
            <mxPoint x="1205" y="2812" as="sourcePoint" />
            <mxPoint x="1125" y="2692" as="targetPoint" />
            <Array as="points">
              <mxPoint x="1557" y="2932" />
              <mxPoint x="1615" y="2932" />
              <mxPoint x="1615" y="2692" />
              <mxPoint x="1215" y="2692" />
            </Array>
          </mxGeometry>
        </mxCell>
        <mxCell id="3Hwd2_8TF0gxeMJ1gKl8-112" style="edgeStyle=orthogonalEdgeStyle;rounded=0;orthogonalLoop=1;jettySize=auto;html=1;exitX=0.5;exitY=1;exitDx=0;exitDy=0;entryX=0.5;entryY=0;entryDx=0;entryDy=0;" parent="1" source="3Hwd2_8TF0gxeMJ1gKl8-113" target="3Hwd2_8TF0gxeMJ1gKl8-155" edge="1">
          <mxGeometry relative="1" as="geometry" />
        </mxCell>
        <mxCell id="3Hwd2_8TF0gxeMJ1gKl8-113" value="Может быть начат процесс зарядки с током, не превышающим ток, установленный ЭТС" style="rounded=1;whiteSpace=wrap;html=1;" parent="1" vertex="1">
          <mxGeometry x="1005" y="3032" width="160" height="68" as="geometry" />
        </mxCell>
        <mxCell id="3Hwd2_8TF0gxeMJ1gKl8-114" value="" style="endArrow=classic;html=1;rounded=0;exitX=0.5;exitY=1;exitDx=0;exitDy=0;entryX=0;entryY=0;entryDx=0;entryDy=0;" parent="1" source="3Hwd2_8TF0gxeMJ1gKl8-86" target="3Hwd2_8TF0gxeMJ1gKl8-113" edge="1">
          <mxGeometry width="50" height="50" relative="1" as="geometry">
            <mxPoint x="1095" y="3092" as="sourcePoint" />
            <mxPoint x="1145" y="3042" as="targetPoint" />
            <Array as="points">
              <mxPoint x="780" y="3032" />
              <mxPoint x="905" y="3032" />
            </Array>
          </mxGeometry>
        </mxCell>
        <mxCell id="3Hwd2_8TF0gxeMJ1gKl8-115" value="" style="endArrow=classic;html=1;rounded=0;exitX=0.5;exitY=1;exitDx=0;exitDy=0;" parent="1" source="3Hwd2_8TF0gxeMJ1gKl8-91" edge="1">
          <mxGeometry width="50" height="50" relative="1" as="geometry">
            <mxPoint x="1095" y="3092" as="sourcePoint" />
            <mxPoint x="1055" y="3030" as="targetPoint" />
            <Array as="points">
              <mxPoint x="1020" y="2982" />
              <mxPoint x="1055" y="2982" />
            </Array>
          </mxGeometry>
        </mxCell>
        <mxCell id="3Hwd2_8TF0gxeMJ1gKl8-116" value="" style="endArrow=classic;html=1;rounded=0;exitX=0.5;exitY=1;exitDx=0;exitDy=0;" parent="1" source="3Hwd2_8TF0gxeMJ1gKl8-89" edge="1">
          <mxGeometry width="50" height="50" relative="1" as="geometry">
            <mxPoint x="1095" y="3092" as="sourcePoint" />
            <mxPoint x="1085" y="3030" as="targetPoint" />
            <Array as="points">
              <mxPoint x="1155" y="2982" />
              <mxPoint x="1085" y="2982" />
            </Array>
          </mxGeometry>
        </mxCell>
        <mxCell id="3Hwd2_8TF0gxeMJ1gKl8-117" value="" style="endArrow=classic;html=1;rounded=0;exitX=0.5;exitY=1;exitDx=0;exitDy=0;" parent="1" source="3Hwd2_8TF0gxeMJ1gKl8-90" edge="1">
          <mxGeometry width="50" height="50" relative="1" as="geometry">
            <mxPoint x="1095" y="3092" as="sourcePoint" />
            <mxPoint x="1115" y="3030" as="targetPoint" />
            <Array as="points">
              <mxPoint x="1295" y="3002" />
              <mxPoint x="1115" y="3002" />
            </Array>
          </mxGeometry>
        </mxCell>
        <mxCell id="3Hwd2_8TF0gxeMJ1gKl8-118" value="" style="endArrow=classic;html=1;rounded=0;exitX=0.5;exitY=1;exitDx=0;exitDy=0;entryX=1;entryY=0;entryDx=0;entryDy=0;" parent="1" source="3Hwd2_8TF0gxeMJ1gKl8-92" target="3Hwd2_8TF0gxeMJ1gKl8-113" edge="1">
          <mxGeometry width="50" height="50" relative="1" as="geometry">
            <mxPoint x="1095" y="3092" as="sourcePoint" />
            <mxPoint x="1145" y="3042" as="targetPoint" />
            <Array as="points">
              <mxPoint x="1435" y="3032" />
            </Array>
          </mxGeometry>
        </mxCell>
        <mxCell id="3Hwd2_8TF0gxeMJ1gKl8-119" value="" style="endArrow=classic;html=1;rounded=0;" parent="1" edge="1">
          <mxGeometry width="50" height="50" relative="1" as="geometry">
            <mxPoint x="835" y="2932" as="sourcePoint" />
            <mxPoint x="835" y="2692" as="targetPoint" />
          </mxGeometry>
        </mxCell>
        <mxCell id="3Hwd2_8TF0gxeMJ1gKl8-120" value="" style="endArrow=classic;html=1;rounded=0;" parent="1" edge="1">
          <mxGeometry width="50" height="50" relative="1" as="geometry">
            <mxPoint x="615" y="2932" as="sourcePoint" />
            <mxPoint x="615" y="2692" as="targetPoint" />
          </mxGeometry>
        </mxCell>
        <mxCell id="3Hwd2_8TF0gxeMJ1gKl8-121" value="" style="endArrow=classic;html=1;rounded=0;" parent="1" edge="1">
          <mxGeometry width="50" height="50" relative="1" as="geometry">
            <mxPoint x="1615" y="2932" as="sourcePoint" />
            <mxPoint x="1615" y="2692" as="targetPoint" />
          </mxGeometry>
        </mxCell>
        <mxCell id="3Hwd2_8TF0gxeMJ1gKl8-122" value="Сопоставление зависимости между рабочим циклом от ЭТС и предельными значениями тока" style="whiteSpace=wrap;html=1;" parent="1" vertex="1">
          <mxGeometry x="945" y="2660" width="210" height="60" as="geometry" />
        </mxCell>
        <mxCell id="3Hwd2_8TF0gxeMJ1gKl8-123" value="Значение ШИМ" style="text;html=1;align=center;verticalAlign=middle;resizable=0;points=[];autosize=1;strokeColor=none;fillColor=none;" parent="1" vertex="1">
          <mxGeometry x="970" y="2720" width="110" height="30" as="geometry" />
        </mxCell>
        <mxCell id="3Hwd2_8TF0gxeMJ1gKl8-124" value="&lt;span style=&quot;color: rgba(0, 0, 0, 0); font-family: monospace; font-size: 0px; text-align: start;&quot;&gt;%3CmxGraphModel%3E%3Croot%3E%3CmxCell%20id%3D%220%22%2F%3E%3CmxCell%20id%3D%221%22%20parent%3D%220%22%2F%3E%3CmxCell%20id%3D%222%22%20value%3D%22%D0%97%D0%B0%D1%80%D1%8F%D0%B4%D0%BA%D0%B0%20%D0%B7%D0%B0%D0%BF%D1%80%D0%B5%D1%89%D0%B5%D0%BD%D0%B0%22%20style%3D%22rounded%3D1%3BwhiteSpace%3Dwrap%3Bhtml%3D1%3B%22%20vertex%3D%221%22%20parent%3D%221%22%3E%3CmxGeometry%20x%3D%22-50%22%20y%3D%22792%22%20width%3D%2270%22%20height%3D%2260%22%20as%3D%22geometry%22%2F%3E%3C%2FmxCell%3E%3CmxCell%20id%3D%223%22%20value%3D%22%D0%A6%D0%B8%D1%84%D1%80%D0%BE%D0%B2%D0%B0%D1%8F%20%D0%BA%D0%BE%D0%BC%D0%BC%D1%83%D0%BD%D0%B8%D0%BA%D0%B0%D1%86%D0%B8%D1%8F%22%20style%3D%22rounded%3D1%3BwhiteSpace%3Dwrap%3Bhtml%3D1%3B%22%20vertex%3D%221%22%20parent%3D%221%22%3E%3CmxGeometry%20x%3D%2250%22%20y%3D%22792%22%20width%3D%2290%22%20height%3D%2260%22%20as%3D%22geometry%22%2F%3E%3C%2FmxCell%3E%3CmxCell%20id%3D%224%22%20value%3D%22%D0%97%D0%B0%D1%80%D1%8F%D0%B4%D0%BA%D0%B0%20%D0%B7%D0%B0%D0%BF%D1%80%D0%B5%D1%89%D0%B5%D0%BD%D0%B0%22%20style%3D%22rounded%3D1%3BwhiteSpace%3Dwrap%3Bhtml%3D1%3B%22%20vertex%3D%221%22%20parent%3D%221%22%3E%3CmxGeometry%20x%3D%22170%22%20y%3D%22792%22%20width%3D%2270%22%20height%3D%2260%22%20as%3D%22geometry%22%2F%3E%3C%2FmxCell%3E%3CmxCell%20id%3D%225%22%20value%3D%22%D0%97%D0%B0%D1%80%D1%8F%D0%B4%D0%BA%D0%B0%20%D0%B7%D0%B0%D0%BF%D1%80%D0%B5%D1%89%D0%B5%D0%BD%D0%B0%22%20style%3D%22rounded%3D1%3BwhiteSpace%3Dwrap%3Bhtml%3D1%3B%22%20vertex%3D%221%22%20parent%3D%221%22%3E%3CmxGeometry%20x%3D%22837%22%20y%3D%22792%22%20width%3D%2270%22%20height%3D%2260%22%20as%3D%22geometry%22%2F%3E%3C%2FmxCell%3E%3CmxCell%20id%3D%226%22%20value%3D%22%D0%A2%D0%BE%D0%BA%20%D0%B7%D0%B0%D1%80%D1%8F%D0%B4%D0%BA%D0%B8%20%3D%26amp%3Bnbsp%3B%26lt%3Bdiv%26gt%3B(%25%20%D1%86%D0%B8%D0%BA%D0%BB%D0%B0*100)*0%2C6%20%D0%90%26lt%3B%2Fdiv%26gt%3B%22%20style%3D%22rounded%3D1%3BwhiteSpace%3Dwrap%3Bhtml%3D1%3B%22%20vertex%3D%221%22%20parent%3D%221%22%3E%3CmxGeometry%20x%3D%22410%22%20y%3D%22794.5%22%20width%3D%22115%22%20height%3D%2255%22%20as%3D%22geometry%22%2F%3E%3C%2FmxCell%3E%3CmxCell%20id%3D%227%22%20value%3D%22%D0%A2%D0%BE%D0%BA%20%D0%B7%D0%B0%D1%80%D1%8F%D0%B4%D0%BA%D0%B8%20%3D%26amp%3Bnbsp%3B%26lt%3Bdiv%26gt%3B(%25%20%D1%86%D0%B8%D0%BA%D0%BB%D0%B0*100%20-%2064)*2%2C5%20%D0%90%26lt%3B%2Fdiv%26gt%3B%22%20style%3D%22rounded%3D1%3BwhiteSpace%3Dwrap%3Bhtml%3D1%3B%22%20vertex%3D%221%22%20parent%3D%221%22%3E%3CmxGeometry%20x%3D%22540%22%20y%3D%22792%22%20width%3D%22140%22%20height%3D%2260%22%20as%3D%22geometry%22%2F%3E%3C%2FmxCell%3E%3CmxCell%20id%3D%228%22%20value%3D%22%D0%A2%D0%BE%D0%BA%20%D0%B7%D0%B0%D1%80%D1%8F%D0%B4%D0%BA%D0%B8%20%3D%206%20%D0%90%22%20style%3D%22rounded%3D1%3BwhiteSpace%3Dwrap%3Bhtml%3D1%3B%22%20vertex%3D%221%22%20parent%3D%221%22%3E%3CmxGeometry%20x%3D%22280%22%20y%3D%22797%22%20width%3D%22110%22%20height%3D%2250%22%20as%3D%22geometry%22%2F%3E%3C%2FmxCell%3E%3CmxCell%20id%3D%229%22%20value%3D%22%D0%97%D0%B0%D1%80%D0%B5%D0%B7%D0%B5%D1%80%D0%B2%D0%B8%D1%80%D0%BE%D0%B2%D0%B0%D0%BD%D0%BD%D0%BE%20(%D0%B7%D0%B0%D1%80%D1%8F%D0%B4%D0%BA%D0%B0%20%D0%B7%D0%B0%D0%BF%D1%80%D0%B5%D1%89%D0%B5%D0%BD%D0%B0)%22%20style%3D%22rounded%3D1%3BwhiteSpace%3Dwrap%3Bhtml%3D1%3B%22%20vertex%3D%221%22%20parent%3D%221%22%3E%3CmxGeometry%20x%3D%22690%22%20y%3D%22792%22%20width%3D%22130%22%20height%3D%2260%22%20as%3D%22geometry%22%2F%3E%3C%2FmxCell%3E%3CmxCell%20id%3D%2210%22%20value%3D%22%22%20style%3D%22endArrow%3Dclassic%3Bhtml%3D1%3Brounded%3D0%3BexitX%3D0.5%3BexitY%3D1%3BexitDx%3D0%3BexitDy%3D0%3BentryX%3D0.5%3BentryY%3D0%3BentryDx%3D0%3BentryDy%3D0%3B%22%20edge%3D%221%22%20target%3D%222%22%20parent%3D%221%22%3E%3CmxGeometry%20width%3D%2250%22%20height%3D%2250%22%20relative%3D%221%22%20as%3D%22geometry%22%3E%3CmxPoint%20x%3D%22355%22%20y%3D%22682%22%20as%3D%22sourcePoint%22%2F%3E%3CmxPoint%20x%3D%22480%22%20y%3D%22812%22%20as%3D%22targetPoint%22%2F%3E%3CArray%20as%3D%22points%22%3E%3CmxPoint%20x%3D%22-15%22%20y%3D%22682%22%2F%3E%3C%2FArray%3E%3C%2FmxGeometry%3E%3C%2FmxCell%3E%3CmxCell%20id%3D%2211%22%20value%3D%22%D0%94%D0%BE%203%25%22%20style%3D%22edgeLabel%3Bhtml%3D1%3Balign%3Dcenter%3BverticalAlign%3Dmiddle%3Bresizable%3D0%3Bpoints%3D%5B%5D%3B%22%20vertex%3D%221%22%20connectable%3D%220%22%20parent%3D%2210%22%3E%3CmxGeometry%20x%3D%220.8167%22%20y%3D%22-2%22%20relative%3D%221%22%20as%3D%22geometry%22%3E%3CmxPoint%20as%3D%22offset%22%2F%3E%3C%2FmxGeometry%3E%3C%2FmxCell%3E%3CmxCell%20id%3D%2212%22%20value%3D%22%22%20style%3D%22endArrow%3Dclassic%3Bhtml%3D1%3Brounded%3D0%3BentryX%3D0.5%3BentryY%3D0%3BentryDx%3D0%3BentryDy%3D0%3BexitX%3D0.5%3BexitY%3D1%3BexitDx%3D0%3BexitDy%3D0%3B%22%20edge%3D%221%22%20target%3D%223%22%20parent%3D%221%22%3E%3CmxGeometry%20width%3D%2250%22%20height%3D%2250%22%20relative%3D%221%22%20as%3D%22geometry%22%3E%3CmxPoint%20x%3D%22355%22%20y%3D%22682%22%20as%3D%22sourcePoint%22%2F%3E%3CmxPoint%20x%3D%22480%22%20y%3D%22812%22%20as%3D%22targetPoint%22%2F%3E%3CArray%20as%3D%22points%22%3E%3CmxPoint%20x%3D%2295%22%20y%3D%22712%22%2F%3E%3C%2FArray%3E%3C%2FmxGeometry%3E%3C%2FmxCell%3E%3CmxCell%20id%3D%2213%22%20value%3D%223%25%20-%207%25%22%20style%3D%22edgeLabel%3Bhtml%3D1%3Balign%3Dcenter%3BverticalAlign%3Dmiddle%3Bresizable%3D0%3Bpoints%3D%5B%5D%3B%22%20vertex%3D%221%22%20connectable%3D%220%22%20parent%3D%2212%22%3E%3CmxGeometry%20x%3D%220.76%22%20y%3D%22-2%22%20relative%3D%221%22%20as%3D%22geometry%22%3E%3CmxPoint%20as%3D%22offset%22%2F%3E%3C%2FmxGeometry%3E%3C%2FmxCell%3E%3CmxCell%20id%3D%2214%22%20value%3D%22%22%20style%3D%22endArrow%3Dclassic%3Bhtml%3D1%3Brounded%3D0%3BexitX%3D0.5%3BexitY%3D1%3BexitDx%3D0%3BexitDy%3D0%3BentryX%3D0.5%3BentryY%3D0%3BentryDx%3D0%3BentryDy%3D0%3B%22%20edge%3D%221%22%20target%3D%224%22%20parent%3D%221%22%3E%3CmxGeometry%20width%3D%2250%22%20height%3D%2250%22%20relative%3D%221%22%20as%3D%22geometry%22%3E%3CmxPoint%20x%3D%22355%22%20y%3D%22682%22%20as%3D%22sourcePoint%22%2F%3E%3CmxPoint%20x%3D%22480%22%20y%3D%22612%22%20as%3D%22targetPoint%22%2F%3E%3CArray%20as%3D%22points%22%3E%3CmxPoint%20x%3D%22205%22%20y%3D%22732%22%2F%3E%3C%2FArray%3E%3C%2FmxGeometry%3E%3C%2FmxCell%3E%3CmxCell%20id%3D%2215%22%20value%3D%227%25%20-%208%25%22%20style%3D%22edgeLabel%3Bhtml%3D1%3Balign%3Dcenter%3BverticalAlign%3Dmiddle%3Bresizable%3D0%3Bpoints%3D%5B%5D%3B%22%20vertex%3D%221%22%20connectable%3D%220%22%20parent%3D%2214%22%3E%3CmxGeometry%20x%3D%220.6332%22%20relative%3D%221%22%20as%3D%22geometry%22%3E%3CmxPoint%20as%3D%22offset%22%2F%3E%3C%2FmxGeometry%3E%3C%2FmxCell%3E%3CmxCell%20id%3D%2216%22%20value%3D%22%22%20style%3D%22endArrow%3Dclassic%3Bhtml%3D1%3Brounded%3D0%3BexitX%3D0.5%3BexitY%3D1%3BexitDx%3D0%3BexitDy%3D0%3BentryX%3D0.5%3BentryY%3D0%3BentryDx%3D0%3BentryDy%3D0%3B%22%20edge%3D%221%22%20target%3D%228%22%20parent%3D%221%22%3E%3CmxGeometry%20width%3D%2250%22%20height%3D%2250%22%20relative%3D%221%22%20as%3D%22geometry%22%3E%3CmxPoint%20x%3D%22355%22%20y%3D%22682%22%20as%3D%22sourcePoint%22%2F%3E%3CmxPoint%20x%3D%22480%22%20y%3D%22612%22%20as%3D%22targetPoint%22%2F%3E%3CArray%20as%3D%22points%22%3E%3CmxPoint%20x%3D%22335%22%20y%3D%22742%22%2F%3E%3C%2FArray%3E%3C%2FmxGeometry%3E%3C%2FmxCell%3E%3CmxCell%20id%3D%2217%22%20value%3D%228%25%20-%2010%25%22%20style%3D%22edgeLabel%3Bhtml%3D1%3Balign%3Dcenter%3BverticalAlign%3Dmiddle%3Bresizable%3D0%3Bpoints%3D%5B%5D%3B%22%20vertex%3D%221%22%20connectable%3D%220%22%20parent%3D%2216%22%3E%3CmxGeometry%20x%3D%220.3404%22%20relative%3D%221%22%20as%3D%22geometry%22%3E%3CmxPoint%20x%3D%225%22%20as%3D%22offset%22%2F%3E%3C%2FmxGeometry%3E%3C%2FmxCell%3E%3CmxCell%20id%3D%2218%22%20value%3D%22%22%20style%3D%22endArrow%3Dclassic%3Bhtml%3D1%3Brounded%3D0%3BexitX%3D0.5%3BexitY%3D1%3BexitDx%3D0%3BexitDy%3D0%3BentryX%3D0.5%3BentryY%3D0%3BentryDx%3D0%3BentryDy%3D0%3B%22%20edge%3D%221%22%20target%3D%226%22%20parent%3D%221%22%3E%3CmxGeometry%20width%3D%2250%22%20height%3D%2250%22%20relative%3D%221%22%20as%3D%22geometry%22%3E%3CmxPoint%20x%3D%22355%22%20y%3D%22682%22%20as%3D%22sourcePoint%22%2F%3E%3CmxPoint%20x%3D%22480%22%20y%3D%22612%22%20as%3D%22targetPoint%22%2F%3E%3CArray%20as%3D%22points%22%3E%3CmxPoint%20x%3D%22460%22%20y%3D%22742%22%2F%3E%3C%2FArray%3E%3C%2FmxGeometry%3E%3C%2FmxCell%3E%3CmxCell%20id%3D%2219%22%20value%3D%2210%25%20-%2085%25%22%20style%3D%22edgeLabel%3Bhtml%3D1%3Balign%3Dcenter%3BverticalAlign%3Dmiddle%3Bresizable%3D0%3Bpoints%3D%5B%5D%3B%22%20vertex%3D%221%22%20connectable%3D%220%22%20parent%3D%2218%22%3E%3CmxGeometry%20x%3D%220.5644%22%20y%3D%223%22%20relative%3D%221%22%20as%3D%22geometry%22%3E%3CmxPoint%20as%3D%22offset%22%2F%3E%3C%2FmxGeometry%3E%3C%2FmxCell%3E%3CmxCell%20id%3D%2220%22%20value%3D%22%22%20style%3D%22endArrow%3Dclassic%3Bhtml%3D1%3Brounded%3D0%3BexitX%3D0.5%3BexitY%3D1%3BexitDx%3D0%3BexitDy%3D0%3BentryX%3D0.5%3BentryY%3D0%3BentryDx%3D0%3BentryDy%3D0%3B%22%20edge%3D%221%22%20target%3D%227%22%20parent%3D%221%22%3E%3CmxGeometry%20width%3D%2250%22%20height%3D%2250%22%20relative%3D%221%22%20as%3D%22geometry%22%3E%3CmxPoint%20x%3D%22355%22%20y%3D%22682%22%20as%3D%22sourcePoint%22%2F%3E%3CmxPoint%20x%3D%22480%22%20y%3D%22612%22%20as%3D%22targetPoint%22%2F%3E%3CArray%20as%3D%22points%22%3E%3CmxPoint%20x%3D%22610%22%20y%3D%22732%22%2F%3E%3C%2FArray%3E%3C%2FmxGeometry%3E%3C%2FmxCell%3E%3CmxCell%20id%3D%2221%22%20value%3D%2285%25%20-%2090%25%22%20style%3D%22edgeLabel%3Bhtml%3D1%3Balign%3Dcenter%3BverticalAlign%3Dmiddle%3Bresizable%3D0%3Bpoints%3D%5B%5D%3B%22%20vertex%3D%221%22%20connectable%3D%220%22%20parent%3D%2220%22%3E%3CmxGeometry%20x%3D%220.7436%22%20relative%3D%221%22%20as%3D%22geometry%22%3E%3CmxPoint%20as%3D%22offset%22%2F%3E%3C%2FmxGeometry%3E%3C%2FmxCell%3E%3CmxCell%20id%3D%2222%22%20value%3D%22%22%20style%3D%22endArrow%3Dclassic%3Bhtml%3D1%3Brounded%3D0%3BexitX%3D0.5%3BexitY%3D1%3BexitDx%3D0%3BexitDy%3D0%3BentryX%3D0.5%3BentryY%3D0%3BentryDx%3D0%3BentryDy%3D0%3B%22%20edge%3D%221%22%20target%3D%229%22%20parent%3D%221%22%3E%3CmxGeometry%20width%3D%2250%22%20height%3D%2250%22%20relative%3D%221%22%20as%3D%22geometry%22%3E%3CmxPoint%20x%3D%22355%22%20y%3D%22682%22%20as%3D%22sourcePoint%22%2F%3E%3CmxPoint%20x%3D%22480%22%20y%3D%22612%22%20as%3D%22targetPoint%22%2F%3E%3CArray%20as%3D%22points%22%3E%3CmxPoint%20x%3D%22750%22%20y%3D%22712%22%2F%3E%3C%2FArray%3E%3C%2FmxGeometry%3E%3C%2FmxCell%3E%3CmxCell%20id%3D%2223%22%20value%3D%2290%25%20-%2097%25%22%20style%3D%22edgeLabel%3Bhtml%3D1%3Balign%3Dcenter%3BverticalAlign%3Dmiddle%3Bresizable%3D0%3Bpoints%3D%5B%5D%3B%22%20vertex%3D%221%22%20connectable%3D%220%22%20parent%3D%2222%22%3E%3CmxGeometry%20x%3D%220.8236%22%20relative%3D%221%22%20as%3D%22geometry%22%3E%3CmxPoint%20as%3D%22offset%22%2F%3E%3C%2FmxGeometry%3E%3C%2FmxCell%3E%3CmxCell%20id%3D%2224%22%20value%3D%22%22%20style%3D%22endArrow%3Dclassic%3Bhtml%3D1%3Brounded%3D0%3BexitX%3D0.5%3BexitY%3D1%3BexitDx%3D0%3BexitDy%3D0%3BentryX%3D0.5%3BentryY%3D0%3BentryDx%3D0%3BentryDy%3D0%3B%22%20edge%3D%221%22%20target%3D%225%22%20parent%3D%221%22%3E%3CmxGeometry%20width%3D%2250%22%20height%3D%2250%22%20relative%3D%221%22%20as%3D%22geometry%22%3E%3CmxPoint%20x%3D%22355%22%20y%3D%22682%22%20as%3D%22sourcePoint%22%2F%3E%3CmxPoint%20x%3D%22480%22%20y%3D%22612%22%20as%3D%22targetPoint%22%2F%3E%3CArray%20as%3D%22points%22%3E%3CmxPoint%20x%3D%22872%22%20y%3D%22682%22%2F%3E%3C%2FArray%3E%3C%2FmxGeometry%3E%3C%2FmxCell%3E%3CmxCell%20id%3D%2225%22%20value%3D%22%D0%91%D0%BE%D0%BB%D1%8C%D1%88%D0%B5%2097%25%22%20style%3D%22edgeLabel%3Bhtml%3D1%3Balign%3Dcenter%3BverticalAlign%3Dmiddle%3Bresizable%3D0%3Bpoints%3D%5B%5D%3B%22%20vertex%3D%221%22%20connectable%3D%220%22%20parent%3D%2224%22%3E%3CmxGeometry%20x%3D%220.8533%22%20relative%3D%221%22%20as%3D%22geometry%22%3E%3CmxPoint%20as%3D%22offset%22%2F%3E%3C%2FmxGeometry%3E%3C%2FmxCell%3E%3CmxCell%20id%3D%2226%22%20value%3D%22%22%20style%3D%22endArrow%3Dnone%3Bhtml%3D1%3Brounded%3D0%3BexitX%3D0.5%3BexitY%3D1%3BexitDx%3D0%3BexitDy%3D0%3BentryX%3D0%3BentryY%3D0.5%3BentryDx%3D0%3BentryDy%3D0%3B%22%20edge%3D%221%22%20source%3D%222%22%20target%3D%2238%22%20parent%3D%221%22%3E%3CmxGeometry%20width%3D%2250%22%20height%3D%2250%22%20relative%3D%221%22%20as%3D%22geometry%22%3E%3CmxPoint%20x%3D%22290%22%20y%3D%22752%22%20as%3D%22sourcePoint%22%2F%3E%3CmxPoint%20x%3D%22310%22%20y%3D%22632%22%20as%3D%22targetPoint%22%2F%3E%3CArray%20as%3D%22points%22%3E%3CmxPoint%20x%3D%22-15%22%20y%3D%22872%22%2F%3E%3CmxPoint%20x%3D%22-70%22%20y%3D%22872%22%2F%3E%3CmxPoint%20x%3D%22-70%22%20y%3D%22632%22%2F%3E%3C%2FArray%3E%3C%2FmxGeometry%3E%3C%2FmxCell%3E%3CmxCell%20id%3D%2227%22%20value%3D%22%22%20style%3D%22endArrow%3Dnone%3Bhtml%3D1%3Brounded%3D0%3BexitX%3D0.5%3BexitY%3D1%3BexitDx%3D0%3BexitDy%3D0%3B%22%20edge%3D%221%22%20source%3D%224%22%20parent%3D%221%22%3E%3CmxGeometry%20width%3D%2250%22%20height%3D%2250%22%20relative%3D%221%22%20as%3D%22geometry%22%3E%3CmxPoint%20x%3D%22290%22%20y%3D%22752%22%20as%3D%22sourcePoint%22%2F%3E%3CmxPoint%20x%3D%22150%22%20y%3D%22632%22%20as%3D%22targetPoint%22%2F%3E%3CArray%20as%3D%22points%22%3E%3CmxPoint%20x%3D%22205%22%20y%3D%22872%22%2F%3E%3CmxPoint%20x%3D%22150%22%20y%3D%22872%22%2F%3E%3C%2FArray%3E%3C%2FmxGeometry%3E%3C%2FmxCell%3E%3CmxCell%20id%3D%2228%22%20value%3D%22%22%20style%3D%22endArrow%3Dnone%3Bhtml%3D1%3Brounded%3D0%3BexitX%3D0.5%3BexitY%3D1%3BexitDx%3D0%3BexitDy%3D0%3BentryX%3D1%3BentryY%3D0.5%3BentryDx%3D0%3BentryDy%3D0%3B%22%20edge%3D%221%22%20source%3D%225%22%20target%3D%2238%22%20parent%3D%221%22%3E%3CmxGeometry%20width%3D%2250%22%20height%3D%2250%22%20relative%3D%221%22%20as%3D%22geometry%22%3E%3CmxPoint%20x%3D%22520%22%20y%3D%22752%22%20as%3D%22sourcePoint%22%2F%3E%3CmxPoint%20x%3D%22440%22%20y%3D%22632%22%20as%3D%22targetPoint%22%2F%3E%3CArray%20as%3D%22points%22%3E%3CmxPoint%20x%3D%22872%22%20y%3D%22872%22%2F%3E%3CmxPoint%20x%3D%22930%22%20y%3D%22872%22%2F%3E%3CmxPoint%20x%3D%22930%22%20y%3D%22632%22%2F%3E%3CmxPoint%20x%3D%22530%22%20y%3D%22632%22%2F%3E%3C%2FArray%3E%3C%2FmxGeometry%3E%3C%2FmxCell%3E%3CmxCell%20id%3D%2229%22%20value%3D%22%D0%97%D0%B0%D0%B2%D0%B5%D1%80%D1%88%D0%B5%D0%BD%D0%B8%D0%B5%22%20style%3D%22rounded%3D1%3BwhiteSpace%3Dwrap%3Bhtml%3D1%3B%22%20vertex%3D%221%22%20parent%3D%221%22%3E%3CmxGeometry%20x%3D%22340%22%20y%3D%22972%22%20width%3D%22120%22%20height%3D%2260%22%20as%3D%22geometry%22%2F%3E%3C%2FmxCell%3E%3CmxCell%20id%3D%2230%22%20value%3D%22%22%20style%3D%22endArrow%3Dclassic%3Bhtml%3D1%3Brounded%3D0%3BexitX%3D0.5%3BexitY%3D1%3BexitDx%3D0%3BexitDy%3D0%3BentryX%3D0%3BentryY%3D0%3BentryDx%3D0%3BentryDy%3D0%3B%22%20edge%3D%221%22%20source%3D%223%22%20target%3D%2229%22%20parent%3D%221%22%3E%3CmxGeometry%20width%3D%2250%22%20height%3D%2250%22%20relative%3D%221%22%20as%3D%22geometry%22%3E%3CmxPoint%20x%3D%22410%22%20y%3D%221032%22%20as%3D%22sourcePoint%22%2F%3E%3CmxPoint%20x%3D%22460%22%20y%3D%22982%22%20as%3D%22targetPoint%22%2F%3E%3CArray%20as%3D%22points%22%3E%3CmxPoint%20x%3D%2295%22%20y%3D%22972%22%2F%3E%3CmxPoint%20x%3D%22220%22%20y%3D%22972%22%2F%3E%3C%2FArray%3E%3C%2FmxGeometry%3E%3C%2FmxCell%3E%3CmxCell%20id%3D%2231%22%20value%3D%22%22%20style%3D%22endArrow%3Dclassic%3Bhtml%3D1%3Brounded%3D0%3BexitX%3D0.5%3BexitY%3D1%3BexitDx%3D0%3BexitDy%3D0%3BentryX%3D0.25%3BentryY%3D0%3BentryDx%3D0%3BentryDy%3D0%3B%22%20edge%3D%221%22%20source%3D%228%22%20target%3D%2229%22%20parent%3D%221%22%3E%3CmxGeometry%20width%3D%2250%22%20height%3D%2250%22%20relative%3D%221%22%20as%3D%22geometry%22%3E%3CmxPoint%20x%3D%22410%22%20y%3D%221032%22%20as%3D%22sourcePoint%22%2F%3E%3CmxPoint%20x%3D%22460%22%20y%3D%22982%22%20as%3D%22targetPoint%22%2F%3E%3CArray%20as%3D%22points%22%3E%3CmxPoint%20x%3D%22335%22%20y%3D%22922%22%2F%3E%3CmxPoint%20x%3D%22370%22%20y%3D%22922%22%2F%3E%3C%2FArray%3E%3C%2FmxGeometry%3E%3C%2FmxCell%3E%3CmxCell%20id%3D%2232%22%20value%3D%22%22%20style%3D%22endArrow%3Dclassic%3Bhtml%3D1%3Brounded%3D0%3BexitX%3D0.5%3BexitY%3D1%3BexitDx%3D0%3BexitDy%3D0%3BentryX%3D0.5%3BentryY%3D0%3BentryDx%3D0%3BentryDy%3D0%3B%22%20edge%3D%221%22%20source%3D%226%22%20target%3D%2229%22%20parent%3D%221%22%3E%3CmxGeometry%20width%3D%2250%22%20height%3D%2250%22%20relative%3D%221%22%20as%3D%22geometry%22%3E%3CmxPoint%20x%3D%22410%22%20y%3D%221032%22%20as%3D%22sourcePoint%22%2F%3E%3CmxPoint%20x%3D%22460%22%20y%3D%22982%22%20as%3D%22targetPoint%22%2F%3E%3CArray%20as%3D%22points%22%3E%3CmxPoint%20x%3D%22470%22%20y%3D%22922%22%2F%3E%3CmxPoint%20x%3D%22400%22%20y%3D%22922%22%2F%3E%3C%2FArray%3E%3C%2FmxGeometry%3E%3C%2FmxCell%3E%3CmxCell%20id%3D%2233%22%20value%3D%22%22%20style%3D%22endArrow%3Dclassic%3Bhtml%3D1%3Brounded%3D0%3BexitX%3D0.5%3BexitY%3D1%3BexitDx%3D0%3BexitDy%3D0%3BentryX%3D0.75%3BentryY%3D0%3BentryDx%3D0%3BentryDy%3D0%3B%22%20edge%3D%221%22%20source%3D%227%22%20target%3D%2229%22%20parent%3D%221%22%3E%3CmxGeometry%20width%3D%2250%22%20height%3D%2250%22%20relative%3D%221%22%20as%3D%22geometry%22%3E%3CmxPoint%20x%3D%22410%22%20y%3D%221032%22%20as%3D%22sourcePoint%22%2F%3E%3CmxPoint%20x%3D%22460%22%20y%3D%22982%22%20as%3D%22targetPoint%22%2F%3E%3CArray%20as%3D%22points%22%3E%3CmxPoint%20x%3D%22610%22%20y%3D%22942%22%2F%3E%3CmxPoint%20x%3D%22430%22%20y%3D%22942%22%2F%3E%3C%2FArray%3E%3C%2FmxGeometry%3E%3C%2FmxCell%3E%3CmxCell%20id%3D%2234%22%20value%3D%22%22%20style%3D%22endArrow%3Dclassic%3Bhtml%3D1%3Brounded%3D0%3BexitX%3D0.5%3BexitY%3D1%3BexitDx%3D0%3BexitDy%3D0%3BentryX%3D1%3BentryY%3D0%3BentryDx%3D0%3BentryDy%3D0%3B%22%20edge%3D%221%22%20source%3D%229%22%20target%3D%2229%22%20parent%3D%221%22%3E%3CmxGeometry%20width%3D%2250%22%20height%3D%2250%22%20relative%3D%221%22%20as%3D%22geometry%22%3E%3CmxPoint%20x%3D%22410%22%20y%3D%221032%22%20as%3D%22sourcePoint%22%2F%3E%3CmxPoint%20x%3D%22460%22%20y%3D%22982%22%20as%3D%22targetPoint%22%2F%3E%3CArray%20as%3D%22points%22%3E%3CmxPoint%20x%3D%22750%22%20y%3D%22972%22%2F%3E%3C%2FArray%3E%3C%2FmxGeometry%3E%3C%2FmxCell%3E%3CmxCell%20id%3D%2235%22%20value%3D%22%22%20style%3D%22endArrow%3Dclassic%3Bhtml%3D1%3Brounded%3D0%3B%22%20edge%3D%221%22%20parent%3D%221%22%3E%3CmxGeometry%20width%3D%2250%22%20height%3D%2250%22%20relative%3D%221%22%20as%3D%22geometry%22%3E%3CmxPoint%20x%3D%22150%22%20y%3D%22872%22%20as%3D%22sourcePoint%22%2F%3E%3CmxPoint%20x%3D%22150%22%20y%3D%22632%22%20as%3D%22targetPoint%22%2F%3E%3C%2FmxGeometry%3E%3C%2FmxCell%3E%3CmxCell%20id%3D%2236%22%20value%3D%22%22%20style%3D%22endArrow%3Dclassic%3Bhtml%3D1%3Brounded%3D0%3B%22%20edge%3D%221%22%20parent%3D%221%22%3E%3CmxGeometry%20width%3D%2250%22%20height%3D%2250%22%20relative%3D%221%22%20as%3D%22geometry%22%3E%3CmxPoint%20x%3D%22-70%22%20y%3D%22872%22%20as%3D%22sourcePoint%22%2F%3E%3CmxPoint%20x%3D%22-70%22%20y%3D%22632%22%20as%3D%22targetPoint%22%2F%3E%3C%2FmxGeometry%3E%3C%2FmxCell%3E%3CmxCell%20id%3D%2237%22%20value%3D%22%22%20style%3D%22endArrow%3Dclassic%3Bhtml%3D1%3Brounded%3D0%3B%22%20edge%3D%221%22%20parent%3D%221%22%3E%3CmxGeometry%20width%3D%2250%22%20height%3D%2250%22%20relative%3D%221%22%20as%3D%22geometry%22%3E%3CmxPoint%20x%3D%22930%22%20y%3D%22872%22%20as%3D%22sourcePoint%22%2F%3E%3CmxPoint%20x%3D%22930%22%20y%3D%22632%22%20as%3D%22targetPoint%22%2F%3E%3C%2FmxGeometry%3E%3C%2FmxCell%3E%3CmxCell%20id%3D%2238%22%20value%3D%22%D0%A1%D0%BE%D0%BF%D0%BE%D1%81%D1%82%D0%B0%D0%B2%D0%BB%D0%B5%D0%BD%D0%B8%D0%B5%20%D0%B7%D0%B0%D0%B2%D0%B8%D1%81%D0%B8%D0%BC%D0%BE%D1%81%D1%82%D0%B8%20%D0%BC%D0%B5%D0%B6%D0%B4%D1%83%20%D1%80%D0%B0%D0%B1%D0%BE%D1%87%D0%B8%D0%BC%20%D1%86%D0%B8%D0%BA%D0%BB%D0%BE%D0%BC%20%D0%BE%D1%82%20%D0%AD%D0%A2%D0%A1%20%D0%B8%20%D0%BF%D1%80%D0%B5%D0%B4%D0%B5%D0%BB%D1%8C%D0%BD%D1%8B%D0%BC%D0%B8%20%D0%B7%D0%BD%D0%B0%D1%87%D0%B5%D0%BD%D0%B8%D1%8F%D0%BC%D0%B8%20%D1%82%D0%BE%D0%BA%D0%B0%22%20style%3D%22whiteSpace%3Dwrap%3Bhtml%3D1%3B%22%20vertex%3D%221%22%20parent%3D%221%22%3E%3CmxGeometry%20x%3D%22260%22%20y%3D%22600%22%20width%3D%22210%22%20height%3D%2260%22%20as%3D%22geometry%22%2F%3E%3C%2FmxCell%3E%3CmxCell%20id%3D%2239%22%20value%3D%22%D0%97%D0%BD%D0%B0%D1%87%D0%B5%D0%BD%D0%B8%D0%B5%20%D0%A8%D0%98%D0%9C%22%20style%3D%22text%3Bhtml%3D1%3Balign%3Dcenter%3BverticalAlign%3Dmiddle%3Bresizable%3D0%3Bpoints%3D%5B%5D%3Bautosize%3D1%3BstrokeColor%3Dnone%3BfillColor%3Dnone%3B%22%20vertex%3D%221%22%20parent%3D%221%22%3E%3CmxGeometry%20x%3D%22285%22%20y%3D%22660%22%20width%3D%22110%22%20height%3D%2230%22%20as%3D%22geometry%22%2F%3E%3C%2FmxCell%3E%3C%2Froot%3E%3C%2FmxGraphModel%3E&lt;/span&gt;" style="text;html=1;align=center;verticalAlign=middle;resizable=0;points=[];autosize=1;strokeColor=none;fillColor=none;" parent="1" vertex="1">
          <mxGeometry x="665" y="2048" width="20" height="30" as="geometry" />
        </mxCell>
        <mxCell id="3Hwd2_8TF0gxeMJ1gKl8-125" value="Зарядка запрещена" style="rounded=1;whiteSpace=wrap;html=1;" parent="1" vertex="1">
          <mxGeometry x="685" y="2290" width="70" height="60" as="geometry" />
        </mxCell>
        <mxCell id="3Hwd2_8TF0gxeMJ1gKl8-126" value="Ожидание цифровой коммуникации" style="rounded=1;whiteSpace=wrap;html=1;" parent="1" vertex="1">
          <mxGeometry x="775" y="2287.5" width="100" height="60" as="geometry" />
        </mxCell>
        <mxCell id="3Hwd2_8TF0gxeMJ1gKl8-127" value="Зарядка запрещена" style="rounded=1;whiteSpace=wrap;html=1;" parent="1" vertex="1">
          <mxGeometry x="1371" y="2270" width="70" height="60" as="geometry" />
        </mxCell>
        <mxCell id="3Hwd2_8TF0gxeMJ1gKl8-128" value="Ток зарядки =&amp;nbsp;&lt;div&gt;(% цикла*100)*0,6 А&lt;/div&gt;" style="rounded=1;whiteSpace=wrap;html=1;" parent="1" vertex="1">
          <mxGeometry x="890" y="2285" width="115" height="55" as="geometry" />
        </mxCell>
        <mxCell id="3Hwd2_8TF0gxeMJ1gKl8-129" value="Ток зарядки =&amp;nbsp;&lt;div&gt;(% цикла*100 - 64)*2,5 А, но не более 63А&lt;/div&gt;" style="rounded=1;whiteSpace=wrap;html=1;" parent="1" vertex="1">
          <mxGeometry x="1025" y="2280" width="155" height="60" as="geometry" />
        </mxCell>
        <mxCell id="3Hwd2_8TF0gxeMJ1gKl8-130" value="Зарезервированно (зарядка запрещена)" style="rounded=1;whiteSpace=wrap;html=1;" parent="1" vertex="1">
          <mxGeometry x="1205" y="2280" width="130" height="60" as="geometry" />
        </mxCell>
        <mxCell id="3Hwd2_8TF0gxeMJ1gKl8-131" value="" style="endArrow=classic;html=1;rounded=0;exitX=0.5;exitY=1;exitDx=0;exitDy=0;entryX=0.5;entryY=0;entryDx=0;entryDy=0;" parent="1" target="3Hwd2_8TF0gxeMJ1gKl8-125" edge="1">
          <mxGeometry width="50" height="50" relative="1" as="geometry">
            <mxPoint x="1020" y="2192" as="sourcePoint" />
            <mxPoint x="1145" y="2322" as="targetPoint" />
            <Array as="points">
              <mxPoint x="720" y="2190" />
            </Array>
          </mxGeometry>
        </mxCell>
        <mxCell id="3Hwd2_8TF0gxeMJ1gKl8-132" value="0%" style="edgeLabel;html=1;align=center;verticalAlign=middle;resizable=0;points=[];" parent="3Hwd2_8TF0gxeMJ1gKl8-131" vertex="1" connectable="0">
          <mxGeometry x="0.8167" y="-2" relative="1" as="geometry">
            <mxPoint as="offset" />
          </mxGeometry>
        </mxCell>
        <mxCell id="3Hwd2_8TF0gxeMJ1gKl8-133" value="" style="endArrow=classic;html=1;rounded=0;entryX=0.5;entryY=0;entryDx=0;entryDy=0;exitX=0.5;exitY=1;exitDx=0;exitDy=0;" parent="1" target="3Hwd2_8TF0gxeMJ1gKl8-126" edge="1">
          <mxGeometry width="50" height="50" relative="1" as="geometry">
            <mxPoint x="1020" y="2192" as="sourcePoint" />
            <mxPoint x="1145" y="2322" as="targetPoint" />
            <Array as="points">
              <mxPoint x="825" y="2240" />
            </Array>
          </mxGeometry>
        </mxCell>
        <mxCell id="3Hwd2_8TF0gxeMJ1gKl8-134" value="5%" style="edgeLabel;html=1;align=center;verticalAlign=middle;resizable=0;points=[];" parent="3Hwd2_8TF0gxeMJ1gKl8-133" vertex="1" connectable="0">
          <mxGeometry x="0.76" y="-2" relative="1" as="geometry">
            <mxPoint as="offset" />
          </mxGeometry>
        </mxCell>
        <mxCell id="3Hwd2_8TF0gxeMJ1gKl8-135" value="" style="endArrow=classic;html=1;rounded=0;exitX=0.5;exitY=1;exitDx=0;exitDy=0;entryX=0.5;entryY=0;entryDx=0;entryDy=0;" parent="1" target="3Hwd2_8TF0gxeMJ1gKl8-128" edge="1">
          <mxGeometry width="50" height="50" relative="1" as="geometry">
            <mxPoint x="1020" y="2192" as="sourcePoint" />
            <mxPoint x="1145" y="2122" as="targetPoint" />
            <Array as="points">
              <mxPoint x="948" y="2240" />
            </Array>
          </mxGeometry>
        </mxCell>
        <mxCell id="3Hwd2_8TF0gxeMJ1gKl8-136" value="10% - 85%" style="edgeLabel;html=1;align=center;verticalAlign=middle;resizable=0;points=[];" parent="3Hwd2_8TF0gxeMJ1gKl8-135" vertex="1" connectable="0">
          <mxGeometry x="0.5644" y="3" relative="1" as="geometry">
            <mxPoint as="offset" />
          </mxGeometry>
        </mxCell>
        <mxCell id="3Hwd2_8TF0gxeMJ1gKl8-137" value="" style="endArrow=classic;html=1;rounded=0;exitX=0.5;exitY=1;exitDx=0;exitDy=0;entryX=0.5;entryY=0;entryDx=0;entryDy=0;" parent="1" target="3Hwd2_8TF0gxeMJ1gKl8-129" edge="1">
          <mxGeometry width="50" height="50" relative="1" as="geometry">
            <mxPoint x="1020" y="2192" as="sourcePoint" />
            <mxPoint x="1145" y="2122" as="targetPoint" />
            <Array as="points">
              <mxPoint x="1105" y="2230" />
            </Array>
          </mxGeometry>
        </mxCell>
        <mxCell id="3Hwd2_8TF0gxeMJ1gKl8-138" value="85% - 90%" style="edgeLabel;html=1;align=center;verticalAlign=middle;resizable=0;points=[];" parent="3Hwd2_8TF0gxeMJ1gKl8-137" vertex="1" connectable="0">
          <mxGeometry x="0.7436" relative="1" as="geometry">
            <mxPoint as="offset" />
          </mxGeometry>
        </mxCell>
        <mxCell id="3Hwd2_8TF0gxeMJ1gKl8-139" value="" style="endArrow=classic;html=1;rounded=0;exitX=0.5;exitY=1;exitDx=0;exitDy=0;entryX=0.5;entryY=0;entryDx=0;entryDy=0;" parent="1" target="3Hwd2_8TF0gxeMJ1gKl8-130" edge="1">
          <mxGeometry width="50" height="50" relative="1" as="geometry">
            <mxPoint x="1020" y="2192" as="sourcePoint" />
            <mxPoint x="1145" y="2122" as="targetPoint" />
            <Array as="points">
              <mxPoint x="1270" y="2240" />
            </Array>
          </mxGeometry>
        </mxCell>
        <mxCell id="3Hwd2_8TF0gxeMJ1gKl8-140" value="90% - 97%" style="edgeLabel;html=1;align=center;verticalAlign=middle;resizable=0;points=[];" parent="3Hwd2_8TF0gxeMJ1gKl8-139" vertex="1" connectable="0">
          <mxGeometry x="0.8236" relative="1" as="geometry">
            <mxPoint as="offset" />
          </mxGeometry>
        </mxCell>
        <mxCell id="3Hwd2_8TF0gxeMJ1gKl8-141" value="" style="endArrow=classic;html=1;rounded=0;exitX=0.5;exitY=1;exitDx=0;exitDy=0;entryX=0.5;entryY=0;entryDx=0;entryDy=0;" parent="1" target="3Hwd2_8TF0gxeMJ1gKl8-127" edge="1">
          <mxGeometry width="50" height="50" relative="1" as="geometry">
            <mxPoint x="1020" y="2192" as="sourcePoint" />
            <mxPoint x="1145" y="2122" as="targetPoint" />
            <Array as="points">
              <mxPoint x="1405" y="2192" />
            </Array>
          </mxGeometry>
        </mxCell>
        <mxCell id="3Hwd2_8TF0gxeMJ1gKl8-142" value="100%" style="edgeLabel;html=1;align=center;verticalAlign=middle;resizable=0;points=[];" parent="3Hwd2_8TF0gxeMJ1gKl8-141" vertex="1" connectable="0">
          <mxGeometry x="0.8533" relative="1" as="geometry">
            <mxPoint as="offset" />
          </mxGeometry>
        </mxCell>
        <mxCell id="3Hwd2_8TF0gxeMJ1gKl8-143" value="" style="endArrow=none;html=1;rounded=0;exitX=0.5;exitY=1;exitDx=0;exitDy=0;entryX=1;entryY=0.5;entryDx=0;entryDy=0;" parent="1" source="3Hwd2_8TF0gxeMJ1gKl8-127" target="3Hwd2_8TF0gxeMJ1gKl8-150" edge="1">
          <mxGeometry width="50" height="50" relative="1" as="geometry">
            <mxPoint x="1185" y="2262" as="sourcePoint" />
            <mxPoint x="1105" y="2142" as="targetPoint" />
            <Array as="points">
              <mxPoint x="1406" y="2380" />
              <mxPoint x="1495" y="2380" />
              <mxPoint x="1495" y="2240" />
              <mxPoint x="1495" y="2100" />
            </Array>
          </mxGeometry>
        </mxCell>
        <mxCell id="3Hwd2_8TF0gxeMJ1gKl8-144" value="Далее" style="rounded=1;whiteSpace=wrap;html=1;" parent="1" vertex="1">
          <mxGeometry x="1005" y="2482" width="120" height="60" as="geometry" />
        </mxCell>
        <mxCell id="3Hwd2_8TF0gxeMJ1gKl8-145" value="" style="endArrow=classic;html=1;rounded=0;exitX=0.5;exitY=1;exitDx=0;exitDy=0;" parent="1" source="3Hwd2_8TF0gxeMJ1gKl8-126" edge="1">
          <mxGeometry width="50" height="50" relative="1" as="geometry">
            <mxPoint x="1075" y="2542" as="sourcePoint" />
            <mxPoint x="1005" y="2510" as="targetPoint" />
            <Array as="points">
              <mxPoint x="825" y="2510" />
              <mxPoint x="965" y="2510" />
            </Array>
          </mxGeometry>
        </mxCell>
        <mxCell id="3Hwd2_8TF0gxeMJ1gKl8-146" value="" style="endArrow=classic;html=1;rounded=0;exitX=0.5;exitY=1;exitDx=0;exitDy=0;entryX=0.5;entryY=0;entryDx=0;entryDy=0;" parent="1" source="3Hwd2_8TF0gxeMJ1gKl8-128" edge="1">
          <mxGeometry width="50" height="50" relative="1" as="geometry">
            <mxPoint x="951.5" y="2340" as="sourcePoint" />
            <mxPoint x="1069" y="2482" as="targetPoint" />
            <Array as="points">
              <mxPoint x="949" y="2440" />
            </Array>
          </mxGeometry>
        </mxCell>
        <mxCell id="3Hwd2_8TF0gxeMJ1gKl8-147" value="" style="endArrow=classic;html=1;rounded=0;exitX=0.444;exitY=0.978;exitDx=0;exitDy=0;entryX=0.75;entryY=0;entryDx=0;entryDy=0;exitPerimeter=0;" parent="1" source="3Hwd2_8TF0gxeMJ1gKl8-129" target="3Hwd2_8TF0gxeMJ1gKl8-144" edge="1">
          <mxGeometry width="50" height="50" relative="1" as="geometry">
            <mxPoint x="1075" y="2542" as="sourcePoint" />
            <mxPoint x="1125" y="2492" as="targetPoint" />
            <Array as="points">
              <mxPoint x="1095" y="2452" />
            </Array>
          </mxGeometry>
        </mxCell>
        <mxCell id="3Hwd2_8TF0gxeMJ1gKl8-148" value="" style="endArrow=classic;html=1;rounded=0;exitX=0.5;exitY=1;exitDx=0;exitDy=0;entryX=1;entryY=0.5;entryDx=0;entryDy=0;" parent="1" source="3Hwd2_8TF0gxeMJ1gKl8-130" target="3Hwd2_8TF0gxeMJ1gKl8-144" edge="1">
          <mxGeometry width="50" height="50" relative="1" as="geometry">
            <mxPoint x="1075" y="2542" as="sourcePoint" />
            <mxPoint x="1125" y="2492" as="targetPoint" />
            <Array as="points">
              <mxPoint x="1270" y="2510" />
              <mxPoint x="1185" y="2510" />
            </Array>
          </mxGeometry>
        </mxCell>
        <mxCell id="3Hwd2_8TF0gxeMJ1gKl8-149" value="" style="endArrow=classic;html=1;rounded=0;" parent="1" edge="1">
          <mxGeometry width="50" height="50" relative="1" as="geometry">
            <mxPoint x="1495" y="2380" as="sourcePoint" />
            <mxPoint x="1495" y="2140" as="targetPoint" />
            <Array as="points">
              <mxPoint x="1495" y="2260" />
            </Array>
          </mxGeometry>
        </mxCell>
        <mxCell id="3Hwd2_8TF0gxeMJ1gKl8-150" value="Сопоставление зависимости между рабочим циклом от зарядной станции и предельными значениями тока" style="whiteSpace=wrap;html=1;" parent="1" vertex="1">
          <mxGeometry x="910" y="2070" width="230" height="60" as="geometry" />
        </mxCell>
        <mxCell id="3Hwd2_8TF0gxeMJ1gKl8-151" value="Значение ШИМ" style="text;html=1;align=center;verticalAlign=middle;resizable=0;points=[];autosize=1;strokeColor=none;fillColor=none;" parent="1" vertex="1">
          <mxGeometry x="945" y="2160" width="110" height="30" as="geometry" />
        </mxCell>
        <mxCell id="3Hwd2_8TF0gxeMJ1gKl8-152" style="edgeStyle=orthogonalEdgeStyle;rounded=0;orthogonalLoop=1;jettySize=auto;html=1;exitX=0.5;exitY=1;exitDx=0;exitDy=0;entryX=-0.004;entryY=0.405;entryDx=0;entryDy=0;entryPerimeter=0;" parent="1" source="3Hwd2_8TF0gxeMJ1gKl8-125" target="3Hwd2_8TF0gxeMJ1gKl8-150" edge="1">
          <mxGeometry relative="1" as="geometry">
            <Array as="points">
              <mxPoint x="725" y="2350" />
              <mxPoint x="725" y="2370" />
              <mxPoint x="635" y="2370" />
              <mxPoint x="635" y="2094" />
            </Array>
          </mxGeometry>
        </mxCell>
        <mxCell id="3Hwd2_8TF0gxeMJ1gKl8-153" style="edgeStyle=orthogonalEdgeStyle;rounded=0;orthogonalLoop=1;jettySize=auto;html=1;exitX=0.5;exitY=1;exitDx=0;exitDy=0;entryX=0.575;entryY=0.047;entryDx=0;entryDy=0;entryPerimeter=0;" parent="1" source="3Hwd2_8TF0gxeMJ1gKl8-144" target="3Hwd2_8TF0gxeMJ1gKl8-122" edge="1">
          <mxGeometry relative="1" as="geometry" />
        </mxCell>
        <mxCell id="3Hwd2_8TF0gxeMJ1gKl8-154" style="edgeStyle=orthogonalEdgeStyle;rounded=0;orthogonalLoop=1;jettySize=auto;html=1;exitX=0.5;exitY=1;exitDx=0;exitDy=0;entryX=0.5;entryY=0;entryDx=0;entryDy=0;" parent="1" source="3Hwd2_8TF0gxeMJ1gKl8-155" target="3Hwd2_8TF0gxeMJ1gKl8-159" edge="1">
          <mxGeometry relative="1" as="geometry" />
        </mxCell>
        <mxCell id="3Hwd2_8TF0gxeMJ1gKl8-155" value="&lt;span style=&quot;text-align: left;&quot;&gt;В процессе зарядки ЭБУ ЭТС контролирует&amp;nbsp; значения&amp;nbsp;&lt;/span&gt;&lt;span style=&quot;text-align: left;&quot;&gt;сопротивления (для случая подключения B и C) между точками 3 и PE и рабочий цикл ШИМ-сигнала&amp;nbsp; в точке&amp;nbsp; обнаружения&amp;nbsp; 2,&amp;nbsp;&amp;nbsp;&lt;/span&gt;&lt;span style=&quot;text-align: left; background-color: initial; padding: 0px; margin: 0px;&quot;&gt;а&amp;nbsp; ЭБУ питанием контролирует&amp;nbsp; значения н&lt;/span&gt;&lt;span style=&quot;text-align: left; background-color: initial; padding: 0px; margin: 0px;&quot;&gt;апряжения в точках 4 и 1 (для режима зарядки 3, случая подключения A и B)&lt;/span&gt;" style="whiteSpace=wrap;html=1;" parent="1" vertex="1">
          <mxGeometry x="985" y="3260" width="200" height="212.5" as="geometry" />
        </mxCell>
        <mxCell id="3Hwd2_8TF0gxeMJ1gKl8-156" style="edgeStyle=orthogonalEdgeStyle;rounded=0;orthogonalLoop=1;jettySize=auto;html=1;exitX=0.5;exitY=1;exitDx=0;exitDy=0;entryX=0.5;entryY=0;entryDx=0;entryDy=0;" parent="1" source="3Hwd2_8TF0gxeMJ1gKl8-157" target="3Hwd2_8TF0gxeMJ1gKl8-166" edge="1">
          <mxGeometry relative="1" as="geometry" />
        </mxCell>
        <mxCell id="3Hwd2_8TF0gxeMJ1gKl8-157" value="ЭБУ ЭТС и ЭБУ питанием деактивируют функции управления зарядкой" style="whiteSpace=wrap;html=1;" parent="1" vertex="1">
          <mxGeometry x="1010" y="3670" width="150" height="60" as="geometry" />
        </mxCell>
        <mxCell id="3Hwd2_8TF0gxeMJ1gKl8-158" style="edgeStyle=orthogonalEdgeStyle;rounded=0;orthogonalLoop=1;jettySize=auto;html=1;exitX=0.5;exitY=1;exitDx=0;exitDy=0;entryX=0.5;entryY=0;entryDx=0;entryDy=0;" parent="1" source="3Hwd2_8TF0gxeMJ1gKl8-159" target="3Hwd2_8TF0gxeMJ1gKl8-157" edge="1">
          <mxGeometry relative="1" as="geometry" />
        </mxCell>
        <mxCell id="3Hwd2_8TF0gxeMJ1gKl8-159" value="Зарядка завершена или условия для ее продолжения не выполнены" style="rhombus;whiteSpace=wrap;html=1;" parent="1" vertex="1">
          <mxGeometry x="995" y="3510" width="180" height="100" as="geometry" />
        </mxCell>
        <mxCell id="3Hwd2_8TF0gxeMJ1gKl8-160" style="edgeStyle=orthogonalEdgeStyle;rounded=0;orthogonalLoop=1;jettySize=auto;html=1;exitX=0.5;exitY=1;exitDx=0;exitDy=0;entryX=0.478;entryY=-0.017;entryDx=0;entryDy=0;entryPerimeter=0;" parent="1" source="3Hwd2_8TF0gxeMJ1gKl8-84" target="3Hwd2_8TF0gxeMJ1gKl8-150" edge="1">
          <mxGeometry relative="1" as="geometry" />
        </mxCell>
        <mxCell id="3Hwd2_8TF0gxeMJ1gKl8-162" value="&lt;li style=&quot;font-size: 14px;&quot;&gt;&lt;font style=&quot;font-size: 14px;&quot;&gt;&lt;strong style=&quot;&quot;&gt;Зарядная станция&lt;/strong&gt; сначала определяет, какой ток она может выдать, ориентируясь на схему Она устанавливает определенный рабочий цикл PWM, чтобы передать информацию электромобилю.&lt;/font&gt;&lt;/li&gt;" style="shape=note;whiteSpace=wrap;html=1;backgroundOutline=1;darkOpacity=0.05;" parent="1" vertex="1">
          <mxGeometry x="165" y="2160" width="360" height="140" as="geometry" />
        </mxCell>
        <mxCell id="3Hwd2_8TF0gxeMJ1gKl8-163" value="&lt;li style=&quot;font-size: 14px;&quot;&gt;&lt;strong style=&quot;background-color: initial;&quot;&gt;Электромобиль&lt;/strong&gt;&lt;span style=&quot;background-color: initial;&quot;&gt; затем считывает рабочий цикл PWM и использует Таблицу A.2 для определения, какой максимальный ток он разрешает принять. Если ток, выдаваемый зарядной станцией, превышает этот лимит, электромобиль может отказаться от зарядки или установить ограничения.&lt;/span&gt;&lt;br&gt;&lt;/li&gt;" style="shape=note;whiteSpace=wrap;html=1;backgroundOutline=1;darkOpacity=0.05;" parent="1" vertex="1">
          <mxGeometry x="155" y="2762" width="380" height="150" as="geometry" />
        </mxCell>
        <UserObject label="Последовательность управления &#xa;процессом зарядки" link="data:page/id,L5ey7sO-qDmW8-c1sars" id="3Hwd2_8TF0gxeMJ1gKl8-166">
          <mxCell style="fontColor=#FFFFFF;fontStyle=4;rounded=1;overflow=hidden;spacing=10;fontSize=16;" parent="1" vertex="1">
            <mxGeometry x="935" y="4098" width="300" height="60" as="geometry" />
          </mxCell>
        </UserObject>
        <mxCell id="3Hwd2_8TF0gxeMJ1gKl8-172" value="&lt;b&gt;&lt;i&gt;&lt;br&gt;&lt;span style=&quot;color: rgb(240, 240, 240); font-family: Helvetica; font-size: 20px; font-variant-ligatures: normal; font-variant-caps: normal; letter-spacing: normal; orphans: 2; text-align: center; text-indent: 0px; text-transform: none; widows: 2; word-spacing: 0px; -webkit-text-stroke-width: 0px; white-space: nowrap; background-color: rgb(27, 29, 30); text-decoration-thickness: initial; text-decoration-style: initial; text-decoration-color: initial; float: none; display: inline !important;&quot;&gt;Подтверждение подключения&lt;/span&gt;&lt;/i&gt;&lt;/b&gt;&lt;div&gt;&lt;span style=&quot;color: rgb(240, 240, 240); font-family: Helvetica; font-size: 20px; font-variant-ligatures: normal; font-variant-caps: normal; letter-spacing: normal; orphans: 2; text-align: center; text-indent: 0px; text-transform: none; widows: 2; word-spacing: 0px; -webkit-text-stroke-width: 0px; white-space: nowrap; background-color: rgb(27, 29, 30); text-decoration-thickness: initial; text-decoration-style: initial; text-decoration-color: initial; float: none; display: inline !important;&quot;&gt;&lt;b style=&quot;&quot;&gt;&lt;i&gt;&amp;nbsp;и электронный замок&lt;/i&gt;&lt;/b&gt;&lt;/span&gt;&lt;br&gt;&lt;br&gt;&lt;/div&gt;" style="shape=note;whiteSpace=wrap;html=1;backgroundOutline=1;darkOpacity=0.05;" parent="1" vertex="1">
          <mxGeometry x="325" y="-70" width="340" height="100" as="geometry" />
        </mxCell>
        <mxCell id="vh-Sjvv4QekfyQPsxwms-1" value="&lt;b style=&quot;font-size: 14px;&quot;&gt;&lt;i style=&quot;&quot;&gt;&lt;font style=&quot;font-size: 14px;&quot;&gt;&lt;br&gt;&lt;/font&gt;&lt;/i&gt;&lt;/b&gt;&lt;div style=&quot;font-size: 14px;&quot;&gt;&lt;span style=&quot;text-wrap: nowrap;&quot;&gt;&lt;b&gt;&lt;i&gt;&lt;font style=&quot;font-size: 14px;&quot;&gt;Определение допустимого тока&lt;/font&gt;&lt;/i&gt;&lt;/b&gt;&lt;/span&gt;&lt;/div&gt;&lt;div style=&quot;font-size: 14px;&quot;&gt;&lt;span style=&quot;text-wrap: nowrap;&quot;&gt;&lt;b&gt;&lt;i&gt;&lt;font style=&quot;font-size: 14px;&quot;&gt;&amp;nbsp;в комплекте зарядных соединений&amp;nbsp;&lt;/font&gt;&lt;/i&gt;&lt;/b&gt;&lt;/span&gt;&lt;/div&gt;&lt;div style=&quot;font-size: 14px;&quot;&gt;&lt;span style=&quot;text-wrap: nowrap;&quot;&gt;&lt;b style=&quot;&quot;&gt;&lt;i style=&quot;&quot;&gt;&lt;font style=&quot;font-size: 14px;&quot;&gt;и номинальной мощности оборудования&lt;/font&gt;&lt;/i&gt;&lt;/b&gt;&lt;/span&gt;&lt;br&gt;&lt;/div&gt;" style="shape=note;whiteSpace=wrap;html=1;backgroundOutline=1;darkOpacity=0.05;" parent="1" vertex="1">
          <mxGeometry x="170" y="1805" width="350" height="80" as="geometry" />
        </mxCell>
      </root>
    </mxGraphModel>
  </diagram>
  <diagram id="L5ey7sO-qDmW8-c1sars" name="Последовательность управления процессом зарядки">
    <mxGraphModel dx="3184" dy="1582" grid="1" gridSize="10" guides="1" tooltips="1" connect="1" arrows="1" fold="1" page="1" pageScale="1" pageWidth="827" pageHeight="1169" math="0" shadow="0">
      <root>
        <mxCell id="0" />
        <mxCell id="1" parent="0" />
        <mxCell id="865T3DmPXxsls_6sSnhb-5" style="edgeStyle=orthogonalEdgeStyle;rounded=0;orthogonalLoop=1;jettySize=auto;html=1;exitX=0.5;exitY=1;exitDx=0;exitDy=0;entryX=0.5;entryY=0;entryDx=0;entryDy=0;" parent="1" source="865T3DmPXxsls_6sSnhb-1" target="865T3DmPXxsls_6sSnhb-4" edge="1">
          <mxGeometry relative="1" as="geometry" />
        </mxCell>
        <mxCell id="865T3DmPXxsls_6sSnhb-1" value="&lt;div&gt;Система ЭТС может активировать определенные триггерные условия&lt;span style=&quot;background-color: initial;&quot;&gt;, чтобы удерживать ЭТС в недвижном состоянии&lt;/span&gt;&lt;/div&gt;" style="whiteSpace=wrap;html=1;" parent="1" vertex="1">
          <mxGeometry x="52.5" y="180" width="255" height="80" as="geometry" />
        </mxCell>
        <mxCell id="865T3DmPXxsls_6sSnhb-3" style="edgeStyle=orthogonalEdgeStyle;rounded=0;orthogonalLoop=1;jettySize=auto;html=1;exitX=0.5;exitY=1;exitDx=0;exitDy=0;entryX=0.5;entryY=0;entryDx=0;entryDy=0;" parent="1" source="865T3DmPXxsls_6sSnhb-2" target="865T3DmPXxsls_6sSnhb-1" edge="1">
          <mxGeometry relative="1" as="geometry" />
        </mxCell>
        <mxCell id="Z-neRYcPutl9Z8zEwiTY-7" value="Да" style="edgeLabel;html=1;align=center;verticalAlign=middle;resizable=0;points=[];" parent="865T3DmPXxsls_6sSnhb-3" vertex="1" connectable="0">
          <mxGeometry x="-0.02" y="3" relative="1" as="geometry">
            <mxPoint as="offset" />
          </mxGeometry>
        </mxCell>
        <mxCell id="Z-neRYcPutl9Z8zEwiTY-8" style="edgeStyle=orthogonalEdgeStyle;rounded=0;orthogonalLoop=1;jettySize=auto;html=1;exitX=0.5;exitY=1;exitDx=0;exitDy=0;" parent="1" source="865T3DmPXxsls_6sSnhb-2" edge="1">
          <mxGeometry relative="1" as="geometry">
            <mxPoint x="180.14285714285734" y="-10.000000000000227" as="targetPoint" />
            <Array as="points">
              <mxPoint x="180" y="90" />
              <mxPoint x="-10" y="90" />
              <mxPoint x="-10" y="-20" />
              <mxPoint x="180" y="-20" />
            </Array>
          </mxGeometry>
        </mxCell>
        <mxCell id="Z-neRYcPutl9Z8zEwiTY-9" value="Нет" style="edgeLabel;html=1;align=center;verticalAlign=middle;resizable=0;points=[];" parent="Z-neRYcPutl9Z8zEwiTY-8" vertex="1" connectable="0">
          <mxGeometry x="0.0669" y="-1" relative="1" as="geometry">
            <mxPoint x="-3" y="12" as="offset" />
          </mxGeometry>
        </mxCell>
        <mxCell id="865T3DmPXxsls_6sSnhb-2" value="&lt;div&gt;&amp;nbsp;Разъем зарядки соединены&amp;nbsp;&lt;/div&gt;&lt;div&gt;с гнездом ЭТС&amp;nbsp;&lt;/div&gt;&lt;div&gt;(вилка&amp;nbsp; и&amp;nbsp; розетка)&amp;nbsp;&lt;/div&gt;" style="rhombus;whiteSpace=wrap;html=1;" parent="1" vertex="1">
          <mxGeometry x="25" width="310" height="70" as="geometry" />
        </mxCell>
        <mxCell id="865T3DmPXxsls_6sSnhb-6" style="edgeStyle=orthogonalEdgeStyle;rounded=0;orthogonalLoop=1;jettySize=auto;html=1;exitX=1;exitY=0.5;exitDx=0;exitDy=0;entryX=1;entryY=0.5;entryDx=0;entryDy=0;" parent="1" source="865T3DmPXxsls_6sSnhb-4" target="865T3DmPXxsls_6sSnhb-2" edge="1">
          <mxGeometry relative="1" as="geometry">
            <Array as="points">
              <mxPoint x="630" y="400" />
              <mxPoint x="630" y="35" />
            </Array>
          </mxGeometry>
        </mxCell>
        <mxCell id="865T3DmPXxsls_6sSnhb-41" style="edgeStyle=orthogonalEdgeStyle;rounded=0;orthogonalLoop=1;jettySize=auto;html=1;exitX=0.5;exitY=1;exitDx=0;exitDy=0;entryX=0.5;entryY=0;entryDx=0;entryDy=0;" parent="1" source="865T3DmPXxsls_6sSnhb-4" target="865T3DmPXxsls_6sSnhb-8" edge="1">
          <mxGeometry relative="1" as="geometry" />
        </mxCell>
        <mxCell id="h8MI32EZhoV8QFpBgOVt-2" style="edgeStyle=orthogonalEdgeStyle;rounded=0;orthogonalLoop=1;jettySize=auto;html=1;exitX=1;exitY=0.5;exitDx=0;exitDy=0;" parent="1" source="865T3DmPXxsls_6sSnhb-4" edge="1">
          <mxGeometry relative="1" as="geometry">
            <mxPoint x="520" y="400.3333333333335" as="targetPoint" />
            <Array as="points">
              <mxPoint x="441" y="400" />
              <mxPoint x="441" y="400" />
            </Array>
          </mxGeometry>
        </mxCell>
        <mxCell id="OtgqTg0IWu0x1teXSYlj-4" value="Нет" style="edgeLabel;html=1;align=center;verticalAlign=middle;resizable=0;points=[];" parent="h8MI32EZhoV8QFpBgOVt-2" vertex="1" connectable="0">
          <mxGeometry x="0.3531" y="1" relative="1" as="geometry">
            <mxPoint as="offset" />
          </mxGeometry>
        </mxCell>
        <mxCell id="865T3DmPXxsls_6sSnhb-4" value="&amp;nbsp; &amp;nbsp; &amp;nbsp;&amp;nbsp;&lt;div&gt;&amp;nbsp;ЭБУ зарядного устройства определяет, полностью&amp;nbsp;&lt;div&gt;&amp;nbsp; &amp;nbsp; ли подключены вилка и розетка, измеряя значения напряжения в точках измерения 2 или 4&lt;/div&gt;&lt;div&gt;(Случаи A и B)&lt;br&gt;&lt;/div&gt;&lt;/div&gt;" style="rhombus;whiteSpace=wrap;html=1;" parent="1" vertex="1">
          <mxGeometry x="-2.5" y="320" width="365" height="160" as="geometry" />
        </mxCell>
        <mxCell id="865T3DmPXxsls_6sSnhb-12" style="edgeStyle=orthogonalEdgeStyle;rounded=0;orthogonalLoop=1;jettySize=auto;html=1;exitX=0.5;exitY=1;exitDx=0;exitDy=0;entryX=0.5;entryY=0;entryDx=0;entryDy=0;" parent="1" source="865T3DmPXxsls_6sSnhb-8" target="865T3DmPXxsls_6sSnhb-9" edge="1">
          <mxGeometry relative="1" as="geometry" />
        </mxCell>
        <mxCell id="865T3DmPXxsls_6sSnhb-34" value="&lt;span style=&quot;font-size: 12px; text-wrap: wrap; background-color: rgb(27, 29, 30);&quot;&gt;Полное&amp;nbsp;&lt;/span&gt;&lt;span style=&quot;font-size: 12px; text-wrap: wrap; background-color: rgb(27, 29, 30);&quot;&gt;подключение&lt;/span&gt;" style="edgeLabel;html=1;align=center;verticalAlign=middle;resizable=0;points=[];" parent="865T3DmPXxsls_6sSnhb-12" vertex="1" connectable="0">
          <mxGeometry x="0.835" y="-2" relative="1" as="geometry">
            <mxPoint x="5" as="offset" />
          </mxGeometry>
        </mxCell>
        <mxCell id="rdpsurpRp2WKPjppHmbc-9" style="edgeStyle=orthogonalEdgeStyle;rounded=0;orthogonalLoop=1;jettySize=auto;html=1;exitX=0.5;exitY=1;exitDx=0;exitDy=0;entryX=0.5;entryY=0;entryDx=0;entryDy=0;" parent="1" source="865T3DmPXxsls_6sSnhb-8" target="rdpsurpRp2WKPjppHmbc-8" edge="1">
          <mxGeometry relative="1" as="geometry" />
        </mxCell>
        <mxCell id="Z-neRYcPutl9Z8zEwiTY-6" value="Частичное подключение" style="edgeLabel;html=1;align=center;verticalAlign=middle;resizable=0;points=[];" parent="rdpsurpRp2WKPjppHmbc-9" vertex="1" connectable="0">
          <mxGeometry x="0.4994" y="3" relative="1" as="geometry">
            <mxPoint as="offset" />
          </mxGeometry>
        </mxCell>
        <mxCell id="OtgqTg0IWu0x1teXSYlj-1" style="edgeStyle=orthogonalEdgeStyle;rounded=0;orthogonalLoop=1;jettySize=auto;html=1;exitX=1;exitY=0.5;exitDx=0;exitDy=0;" parent="1" source="865T3DmPXxsls_6sSnhb-8" edge="1">
          <mxGeometry relative="1" as="geometry">
            <mxPoint x="630" y="604.5789473684213" as="targetPoint" />
          </mxGeometry>
        </mxCell>
        <mxCell id="OtgqTg0IWu0x1teXSYlj-2" value="Нет" style="edgeLabel;html=1;align=center;verticalAlign=middle;resizable=0;points=[];" parent="OtgqTg0IWu0x1teXSYlj-1" vertex="1" connectable="0">
          <mxGeometry x="-0.1743" y="2" relative="1" as="geometry">
            <mxPoint as="offset" />
          </mxGeometry>
        </mxCell>
        <mxCell id="865T3DmPXxsls_6sSnhb-8" value="&amp;nbsp; &amp;nbsp; &amp;nbsp; ЭБУ ЭТС проверяет полное подключение разъема&amp;nbsp;&lt;div&gt;к гнезду автомобиля,&amp;nbsp; измеряя сопротивление&amp;nbsp;&lt;div&gt;между точкой измерения 3 и PE.&amp;nbsp;&lt;/div&gt;&lt;/div&gt;" style="rhombus;whiteSpace=wrap;html=1;" parent="1" vertex="1">
          <mxGeometry x="-35" y="540" width="430" height="130" as="geometry" />
        </mxCell>
        <mxCell id="Z-neRYcPutl9Z8zEwiTY-2" style="edgeStyle=orthogonalEdgeStyle;rounded=0;orthogonalLoop=1;jettySize=auto;html=1;exitX=0.5;exitY=1;exitDx=0;exitDy=0;entryX=0.5;entryY=0;entryDx=0;entryDy=0;" parent="1" source="865T3DmPXxsls_6sSnhb-9" target="865T3DmPXxsls_6sSnhb-21" edge="1">
          <mxGeometry relative="1" as="geometry" />
        </mxCell>
        <mxCell id="865T3DmPXxsls_6sSnhb-9" value="&lt;div&gt;&lt;div&gt;S3 замкнут,&lt;/div&gt;&lt;div&gt;&amp;nbsp;CC подключен,&lt;/div&gt;&lt;div&gt;сопротивление между точкой 3 и PE измеряется как RC&lt;br&gt;&lt;/div&gt;&lt;/div&gt;" style="whiteSpace=wrap;html=1;" parent="1" vertex="1">
          <mxGeometry x="-145" y="780" width="180" height="70" as="geometry" />
        </mxCell>
        <mxCell id="Z-neRYcPutl9Z8zEwiTY-4" style="edgeStyle=orthogonalEdgeStyle;rounded=0;orthogonalLoop=1;jettySize=auto;html=1;exitX=0.5;exitY=1;exitDx=0;exitDy=0;entryX=0.5;entryY=0;entryDx=0;entryDy=0;" parent="1" source="865T3DmPXxsls_6sSnhb-11" target="865T3DmPXxsls_6sSnhb-21" edge="1">
          <mxGeometry relative="1" as="geometry" />
        </mxCell>
        <mxCell id="865T3DmPXxsls_6sSnhb-11" value="&lt;div&gt;S3 заммкнут,&lt;/div&gt;&lt;div&gt;&amp;nbsp;CC не подключен,&amp;nbsp;&lt;/div&gt;&lt;div&gt;сопротивление между точкой 3 и PE измеряется как RC.&lt;br&gt;&lt;/div&gt;" style="whiteSpace=wrap;html=1;" parent="1" vertex="1">
          <mxGeometry x="331.88" y="780" width="210" height="70" as="geometry" />
        </mxCell>
        <mxCell id="865T3DmPXxsls_6sSnhb-19" style="edgeStyle=orthogonalEdgeStyle;rounded=0;orthogonalLoop=1;jettySize=auto;html=1;exitX=0.5;exitY=1;exitDx=0;exitDy=0;entryX=0.42;entryY=-0.043;entryDx=0;entryDy=0;entryPerimeter=0;" parent="1" source="865T3DmPXxsls_6sSnhb-8" target="865T3DmPXxsls_6sSnhb-11" edge="1">
          <mxGeometry relative="1" as="geometry" />
        </mxCell>
        <mxCell id="865T3DmPXxsls_6sSnhb-37" value="Подключения нет" style="edgeLabel;html=1;align=center;verticalAlign=middle;resizable=0;points=[];" parent="865T3DmPXxsls_6sSnhb-19" vertex="1" connectable="0">
          <mxGeometry x="0.8809" y="2" relative="1" as="geometry">
            <mxPoint x="-10" as="offset" />
          </mxGeometry>
        </mxCell>
        <mxCell id="865T3DmPXxsls_6sSnhb-28" style="edgeStyle=orthogonalEdgeStyle;rounded=0;orthogonalLoop=1;jettySize=auto;html=1;exitX=0.5;exitY=1;exitDx=0;exitDy=0;entryX=0.5;entryY=0;entryDx=0;entryDy=0;" parent="1" source="865T3DmPXxsls_6sSnhb-21" target="865T3DmPXxsls_6sSnhb-27" edge="1">
          <mxGeometry relative="1" as="geometry" />
        </mxCell>
        <mxCell id="865T3DmPXxsls_6sSnhb-33" value="Да" style="edgeLabel;html=1;align=center;verticalAlign=middle;resizable=0;points=[];" parent="865T3DmPXxsls_6sSnhb-28" vertex="1" connectable="0">
          <mxGeometry x="-0.4389" y="-2" relative="1" as="geometry">
            <mxPoint as="offset" />
          </mxGeometry>
        </mxCell>
        <mxCell id="865T3DmPXxsls_6sSnhb-80" style="edgeStyle=orthogonalEdgeStyle;rounded=0;orthogonalLoop=1;jettySize=auto;html=1;exitX=1;exitY=0.5;exitDx=0;exitDy=0;" parent="1" source="865T3DmPXxsls_6sSnhb-21" edge="1">
          <mxGeometry relative="1" as="geometry">
            <mxPoint x="630" y="400" as="targetPoint" />
          </mxGeometry>
        </mxCell>
        <mxCell id="865T3DmPXxsls_6sSnhb-81" value="Нет" style="edgeLabel;html=1;align=center;verticalAlign=middle;resizable=0;points=[];" parent="865T3DmPXxsls_6sSnhb-80" vertex="1" connectable="0">
          <mxGeometry x="-0.8715" y="-2" relative="1" as="geometry">
            <mxPoint as="offset" />
          </mxGeometry>
        </mxCell>
        <mxCell id="h8MI32EZhoV8QFpBgOVt-1" style="edgeStyle=orthogonalEdgeStyle;rounded=0;orthogonalLoop=1;jettySize=auto;html=1;exitX=1;exitY=0.5;exitDx=0;exitDy=0;" parent="1" source="865T3DmPXxsls_6sSnhb-21" edge="1">
          <mxGeometry relative="1" as="geometry">
            <mxPoint x="520" y="990.3333333333335" as="targetPoint" />
          </mxGeometry>
        </mxCell>
        <mxCell id="865T3DmPXxsls_6sSnhb-21" value="&lt;div&gt;Оборудование не имеет сбоев&lt;/div&gt;&lt;div&gt;&amp;nbsp;и вилка и розетка полностью подключены (для режима 3, случаев A и&lt;span style=&quot;background-color: initial;&quot;&gt;&amp;nbsp;B)&lt;/span&gt;&lt;/div&gt;" style="rhombus;whiteSpace=wrap;html=1;" parent="1" vertex="1">
          <mxGeometry x="29.680000000000003" y="940" width="300.63" height="100" as="geometry" />
        </mxCell>
        <mxCell id="865T3DmPXxsls_6sSnhb-31" style="edgeStyle=orthogonalEdgeStyle;rounded=0;orthogonalLoop=1;jettySize=auto;html=1;exitX=0.5;exitY=1;exitDx=0;exitDy=0;entryX=0.5;entryY=0;entryDx=0;entryDy=0;" parent="1" source="865T3DmPXxsls_6sSnhb-27" target="865T3DmPXxsls_6sSnhb-29" edge="1">
          <mxGeometry relative="1" as="geometry" />
        </mxCell>
        <mxCell id="865T3DmPXxsls_6sSnhb-27" value="&lt;div&gt;Состояние&amp;nbsp; подключения&amp;nbsp; S1&amp;nbsp; переключается&amp;nbsp; с&amp;nbsp; +12&amp;nbsp; В&amp;nbsp; на&amp;nbsp; ШИМ,&amp;nbsp; и&amp;nbsp; блок&amp;nbsp; управления&amp;nbsp;&lt;/div&gt;&lt;div&gt;питанием&amp;nbsp; посылает&amp;nbsp; ШИМ-сигнал&lt;/div&gt;" style="whiteSpace=wrap;html=1;" parent="1" vertex="1">
          <mxGeometry x="65" y="1109" width="230" height="60" as="geometry" />
        </mxCell>
        <mxCell id="865T3DmPXxsls_6sSnhb-32" style="edgeStyle=orthogonalEdgeStyle;rounded=0;orthogonalLoop=1;jettySize=auto;html=1;exitX=0.5;exitY=1;exitDx=0;exitDy=0;entryX=0.5;entryY=0;entryDx=0;entryDy=0;" parent="1" source="865T3DmPXxsls_6sSnhb-29" target="865T3DmPXxsls_6sSnhb-30" edge="1">
          <mxGeometry relative="1" as="geometry" />
        </mxCell>
        <mxCell id="865T3DmPXxsls_6sSnhb-29" value="&lt;div&gt;Блок&amp;nbsp; управления&amp;nbsp; ЭТС&amp;nbsp; определяет,&amp;nbsp;&lt;/div&gt;&lt;div&gt;полностью ли подключен комплект зарядного устройства путем измерения значения напряжения в&amp;nbsp;&lt;span style=&quot;background-color: initial;&quot;&gt;точке 1 или 4&lt;/span&gt;&lt;/div&gt;" style="whiteSpace=wrap;html=1;" parent="1" vertex="1">
          <mxGeometry x="48.75" y="1240" width="262.5" height="60" as="geometry" />
        </mxCell>
        <mxCell id="865T3DmPXxsls_6sSnhb-73" style="edgeStyle=orthogonalEdgeStyle;rounded=0;orthogonalLoop=1;jettySize=auto;html=1;exitX=0.5;exitY=1;exitDx=0;exitDy=0;entryX=0.5;entryY=0;entryDx=0;entryDy=0;" parent="1" source="865T3DmPXxsls_6sSnhb-30" target="865T3DmPXxsls_6sSnhb-49" edge="1">
          <mxGeometry relative="1" as="geometry" />
        </mxCell>
        <mxCell id="865T3DmPXxsls_6sSnhb-30" value="&lt;div&gt;Блок&amp;nbsp; управления&amp;nbsp; ЭТС&amp;nbsp; определяет,&amp;nbsp;&lt;/div&gt;&lt;div&gt;&lt;span style=&quot;background-color: initial;&quot;&gt;полностью ли подключен комплект зарядных разъемов путем измерения ШИМ-сигнала в точке 2&lt;/span&gt;&lt;br&gt;&lt;/div&gt;" style="whiteSpace=wrap;html=1;" parent="1" vertex="1">
          <mxGeometry x="65" y="1350" width="230" height="60" as="geometry" />
        </mxCell>
        <mxCell id="865T3DmPXxsls_6sSnhb-72" style="edgeStyle=orthogonalEdgeStyle;rounded=0;orthogonalLoop=1;jettySize=auto;html=1;exitX=0.5;exitY=1;exitDx=0;exitDy=0;entryX=0.5;entryY=0;entryDx=0;entryDy=0;" parent="1" source="865T3DmPXxsls_6sSnhb-49" target="865T3DmPXxsls_6sSnhb-50" edge="1">
          <mxGeometry relative="1" as="geometry" />
        </mxCell>
        <mxCell id="aMy_s09rXomY22jvARsg-2" value="Да" style="edgeLabel;html=1;align=center;verticalAlign=middle;resizable=0;points=[];" parent="865T3DmPXxsls_6sSnhb-72" vertex="1" connectable="0">
          <mxGeometry x="-0.2" y="1" relative="1" as="geometry">
            <mxPoint as="offset" />
          </mxGeometry>
        </mxCell>
        <mxCell id="aMy_s09rXomY22jvARsg-1" style="edgeStyle=orthogonalEdgeStyle;rounded=0;orthogonalLoop=1;jettySize=auto;html=1;exitX=1;exitY=0.5;exitDx=0;exitDy=0;" parent="1" source="865T3DmPXxsls_6sSnhb-49" edge="1">
          <mxGeometry relative="1" as="geometry">
            <mxPoint x="630" y="990" as="targetPoint" />
          </mxGeometry>
        </mxCell>
        <mxCell id="aMy_s09rXomY22jvARsg-3" value="Нет" style="edgeLabel;html=1;align=center;verticalAlign=middle;resizable=0;points=[];" parent="aMy_s09rXomY22jvARsg-1" vertex="1" connectable="0">
          <mxGeometry x="-0.7805" y="3" relative="1" as="geometry">
            <mxPoint as="offset" />
          </mxGeometry>
        </mxCell>
        <mxCell id="865T3DmPXxsls_6sSnhb-49" value="Не обнаружено неисправностей И аккумуляторная батарея находится в состоянии, подходящем для зардки" style="rhombus;whiteSpace=wrap;html=1;" parent="1" vertex="1">
          <mxGeometry x="40" y="1475" width="280" height="130" as="geometry" />
        </mxCell>
        <mxCell id="865T3DmPXxsls_6sSnhb-82" style="edgeStyle=orthogonalEdgeStyle;rounded=0;orthogonalLoop=1;jettySize=auto;html=1;exitX=0.5;exitY=1;exitDx=0;exitDy=0;entryX=0.5;entryY=0;entryDx=0;entryDy=0;" parent="1" source="865T3DmPXxsls_6sSnhb-50" target="865T3DmPXxsls_6sSnhb-51" edge="1">
          <mxGeometry relative="1" as="geometry" />
        </mxCell>
        <mxCell id="865T3DmPXxsls_6sSnhb-50" value="ЭБУ ЭТС замыкает S2" style="whiteSpace=wrap;html=1;" parent="1" vertex="1">
          <mxGeometry x="105" y="1650" width="150" height="60" as="geometry" />
        </mxCell>
        <mxCell id="865T3DmPXxsls_6sSnhb-55" style="edgeStyle=orthogonalEdgeStyle;rounded=0;orthogonalLoop=1;jettySize=auto;html=1;exitX=0;exitY=0.5;exitDx=0;exitDy=0;entryX=1;entryY=0.5;entryDx=0;entryDy=0;" parent="1" source="865T3DmPXxsls_6sSnhb-51" target="865T3DmPXxsls_6sSnhb-52" edge="1">
          <mxGeometry relative="1" as="geometry" />
        </mxCell>
        <mxCell id="865T3DmPXxsls_6sSnhb-56" value="Да" style="edgeLabel;html=1;align=center;verticalAlign=middle;resizable=0;points=[];" parent="865T3DmPXxsls_6sSnhb-55" vertex="1" connectable="0">
          <mxGeometry x="0.2486" y="1" relative="1" as="geometry">
            <mxPoint as="offset" />
          </mxGeometry>
        </mxCell>
        <mxCell id="865T3DmPXxsls_6sSnhb-61" style="edgeStyle=orthogonalEdgeStyle;rounded=0;orthogonalLoop=1;jettySize=auto;html=1;exitX=0.5;exitY=1;exitDx=0;exitDy=0;entryX=0.5;entryY=0;entryDx=0;entryDy=0;" parent="1" source="865T3DmPXxsls_6sSnhb-51" target="865T3DmPXxsls_6sSnhb-59" edge="1">
          <mxGeometry relative="1" as="geometry" />
        </mxCell>
        <mxCell id="865T3DmPXxsls_6sSnhb-62" value="Нет" style="edgeLabel;html=1;align=center;verticalAlign=middle;resizable=0;points=[];" parent="865T3DmPXxsls_6sSnhb-61" vertex="1" connectable="0">
          <mxGeometry x="-0.2237" y="-3" relative="1" as="geometry">
            <mxPoint x="3" y="-17" as="offset" />
          </mxGeometry>
        </mxCell>
        <mxCell id="865T3DmPXxsls_6sSnhb-51" value="ЭТС оснащено функцией &quot;Запрос зарядки&quot;" style="rhombus;whiteSpace=wrap;html=1;" parent="1" vertex="1">
          <mxGeometry x="80" y="1770" width="200" height="80" as="geometry" />
        </mxCell>
        <mxCell id="865T3DmPXxsls_6sSnhb-63" style="edgeStyle=orthogonalEdgeStyle;rounded=0;orthogonalLoop=1;jettySize=auto;html=1;exitX=0.5;exitY=1;exitDx=0;exitDy=0;entryX=0.5;entryY=0;entryDx=0;entryDy=0;" parent="1" source="865T3DmPXxsls_6sSnhb-52" target="865T3DmPXxsls_6sSnhb-59" edge="1">
          <mxGeometry relative="1" as="geometry" />
        </mxCell>
        <mxCell id="865T3DmPXxsls_6sSnhb-52" value="ЭТС должно находиться в состоянии &quot;запрос зарядки&quot;" style="whiteSpace=wrap;html=1;" parent="1" vertex="1">
          <mxGeometry x="-185.32" y="1780" width="215" height="60" as="geometry" />
        </mxCell>
        <mxCell id="865T3DmPXxsls_6sSnhb-57" style="edgeStyle=orthogonalEdgeStyle;rounded=0;orthogonalLoop=1;jettySize=auto;html=1;exitX=0;exitY=0.5;exitDx=0;exitDy=0;entryX=1;entryY=0.5;entryDx=0;entryDy=0;" parent="1" source="865T3DmPXxsls_6sSnhb-59" target="865T3DmPXxsls_6sSnhb-60" edge="1">
          <mxGeometry relative="1" as="geometry" />
        </mxCell>
        <mxCell id="865T3DmPXxsls_6sSnhb-58" value="Да" style="edgeLabel;html=1;align=center;verticalAlign=middle;resizable=0;points=[];" parent="865T3DmPXxsls_6sSnhb-57" vertex="1" connectable="0">
          <mxGeometry x="0.2486" y="1" relative="1" as="geometry">
            <mxPoint as="offset" />
          </mxGeometry>
        </mxCell>
        <mxCell id="865T3DmPXxsls_6sSnhb-65" style="edgeStyle=orthogonalEdgeStyle;rounded=0;orthogonalLoop=1;jettySize=auto;html=1;exitX=0.5;exitY=1;exitDx=0;exitDy=0;entryX=0.5;entryY=0;entryDx=0;entryDy=0;" parent="1" source="865T3DmPXxsls_6sSnhb-59" target="865T3DmPXxsls_6sSnhb-64" edge="1">
          <mxGeometry relative="1" as="geometry" />
        </mxCell>
        <mxCell id="865T3DmPXxsls_6sSnhb-66" value="Нет" style="edgeLabel;html=1;align=center;verticalAlign=middle;resizable=0;points=[];" parent="865T3DmPXxsls_6sSnhb-65" vertex="1" connectable="0">
          <mxGeometry x="-0.0891" y="2" relative="1" as="geometry">
            <mxPoint x="-3" y="-29" as="offset" />
          </mxGeometry>
        </mxCell>
        <mxCell id="865T3DmPXxsls_6sSnhb-59" value="ЭТС оснащено функцией &quot;Управление зарядкой&quot;" style="rhombus;whiteSpace=wrap;html=1;" parent="1" vertex="1">
          <mxGeometry x="80" y="1950" width="200" height="80" as="geometry" />
        </mxCell>
        <mxCell id="865T3DmPXxsls_6sSnhb-67" style="edgeStyle=orthogonalEdgeStyle;rounded=0;orthogonalLoop=1;jettySize=auto;html=1;exitX=0.5;exitY=1;exitDx=0;exitDy=0;entryX=0.5;entryY=0;entryDx=0;entryDy=0;" parent="1" source="865T3DmPXxsls_6sSnhb-60" target="865T3DmPXxsls_6sSnhb-64" edge="1">
          <mxGeometry relative="1" as="geometry" />
        </mxCell>
        <mxCell id="865T3DmPXxsls_6sSnhb-60" value="ЭТС должно находиться в состоянии &quot;управление зарядкой&quot;" style="whiteSpace=wrap;html=1;" parent="1" vertex="1">
          <mxGeometry x="-190" y="1960" width="215" height="60" as="geometry" />
        </mxCell>
        <mxCell id="865T3DmPXxsls_6sSnhb-71" style="edgeStyle=orthogonalEdgeStyle;rounded=0;orthogonalLoop=1;jettySize=auto;html=1;exitX=0.5;exitY=1;exitDx=0;exitDy=0;entryX=0.5;entryY=0;entryDx=0;entryDy=0;" parent="1" source="865T3DmPXxsls_6sSnhb-64" target="865T3DmPXxsls_6sSnhb-70" edge="1">
          <mxGeometry relative="1" as="geometry" />
        </mxCell>
        <mxCell id="rdpsurpRp2WKPjppHmbc-14" value="Да" style="edgeLabel;html=1;align=center;verticalAlign=middle;resizable=0;points=[];" parent="865T3DmPXxsls_6sSnhb-71" vertex="1" connectable="0">
          <mxGeometry x="-0.1003" y="-1" relative="1" as="geometry">
            <mxPoint as="offset" />
          </mxGeometry>
        </mxCell>
        <mxCell id="865T3DmPXxsls_6sSnhb-64" value="ЭБУ станции определяет готовность путем измерения напряжения в точке 1:&lt;div&gt;пиковое значение напряжения равно значению в сост.3&lt;/div&gt;" style="rhombus;whiteSpace=wrap;html=1;" parent="1" vertex="1">
          <mxGeometry x="40.629999999999995" y="2160" width="279.37" height="150" as="geometry" />
        </mxCell>
        <mxCell id="rdpsurpRp2WKPjppHmbc-19" style="edgeStyle=orthogonalEdgeStyle;rounded=0;orthogonalLoop=1;jettySize=auto;html=1;exitX=0.5;exitY=1;exitDx=0;exitDy=0;entryX=0.5;entryY=0;entryDx=0;entryDy=0;" parent="1" source="865T3DmPXxsls_6sSnhb-70" target="FdZrIuBGv6vU3EPVmL-b-1" edge="1">
          <mxGeometry relative="1" as="geometry" />
        </mxCell>
        <mxCell id="865T3DmPXxsls_6sSnhb-70" value="ЭБУ подает напряжение в цепь, замыкая контакты К1 К2" style="whiteSpace=wrap;html=1;" parent="1" vertex="1">
          <mxGeometry x="109.38" y="2400" width="141.87" height="60" as="geometry" />
        </mxCell>
        <mxCell id="rdpsurpRp2WKPjppHmbc-20" style="edgeStyle=orthogonalEdgeStyle;rounded=0;orthogonalLoop=1;jettySize=auto;html=1;exitX=0.5;exitY=1;exitDx=0;exitDy=0;entryX=0.5;entryY=0;entryDx=0;entryDy=0;" parent="1" source="FdZrIuBGv6vU3EPVmL-b-1" target="FdZrIuBGv6vU3EPVmL-b-3" edge="1">
          <mxGeometry relative="1" as="geometry" />
        </mxCell>
        <mxCell id="FdZrIuBGv6vU3EPVmL-b-1" value="&lt;div&gt;ЭБУ ЭТС п&lt;span style=&quot;background-color: initial;&quot;&gt;одтверждает максимальную мощность питания станции, определяя рабочий&amp;nbsp;&lt;/span&gt;&lt;span style=&quot;background-color: initial;&quot;&gt;цикл ШИМ-сигнала&amp;nbsp; в&amp;nbsp; точке&amp;nbsp; &amp;nbsp;2,&amp;nbsp; и&amp;nbsp; подтверждает номинальную&amp;nbsp; мощность&amp;nbsp; кабеля,&amp;nbsp;&lt;/span&gt;&lt;span style=&quot;background-color: initial;&quot;&gt;определяя&amp;nbsp; значение&amp;nbsp; сопротивления между&amp;nbsp; точкой 3&amp;nbsp; и&amp;nbsp; PE.&amp;nbsp;&amp;nbsp;&lt;/span&gt;&lt;/div&gt;&lt;div&gt;&lt;br&gt;&lt;/div&gt;" style="whiteSpace=wrap;html=1;" parent="1" vertex="1">
          <mxGeometry x="28.44" y="2540" width="301.87" height="110" as="geometry" />
        </mxCell>
        <mxCell id="rdpsurpRp2WKPjppHmbc-21" style="edgeStyle=orthogonalEdgeStyle;rounded=0;orthogonalLoop=1;jettySize=auto;html=1;exitX=0.5;exitY=1;exitDx=0;exitDy=0;entryX=0.5;entryY=0;entryDx=0;entryDy=0;" parent="1" source="FdZrIuBGv6vU3EPVmL-b-3" target="rdpsurpRp2WKPjppHmbc-15" edge="1">
          <mxGeometry relative="1" as="geometry" />
        </mxCell>
        <mxCell id="FdZrIuBGv6vU3EPVmL-b-3" value="&lt;span style=&quot;background-color: initial;&quot;&gt;ЭБУ ЭТС с&lt;/span&gt;&lt;span style=&quot;background-color: initial;&quot;&gt;равнивает максимальное значение тока питания, подаваемого в настоящее время станцией,&amp;nbsp;&lt;/span&gt;&lt;span style=&quot;background-color: initial;&quot;&gt;номинальное значение входного&amp;nbsp; тока бортового&amp;nbsp; зарядного&amp;nbsp; устройства&amp;nbsp; и&amp;nbsp; номинальную&lt;/span&gt;&amp;nbsp;проводимость кабеля&lt;span style=&quot;background-color: initial;&quot;&gt;,&amp;nbsp; и&amp;nbsp; минимальное&amp;nbsp; значение&amp;nbsp; устанавливается&amp;nbsp; в&amp;nbsp; качестве&amp;nbsp; максимально допустимого&amp;nbsp; входного&amp;nbsp;&lt;/span&gt;&lt;span style=&quot;background-color: initial;&quot;&gt;тока бортового зарядного устройства.&amp;nbsp;&lt;/span&gt;" style="whiteSpace=wrap;html=1;" parent="1" vertex="1">
          <mxGeometry x="35.31999999999999" y="2740" width="290" height="120" as="geometry" />
        </mxCell>
        <mxCell id="fk-MnctCyBJSVbWkX-rV-2" style="edgeStyle=orthogonalEdgeStyle;rounded=0;orthogonalLoop=1;jettySize=auto;html=1;exitX=0.5;exitY=1;exitDx=0;exitDy=0;entryX=0.5;entryY=0;entryDx=0;entryDy=0;" parent="1" source="fk-MnctCyBJSVbWkX-rV-1" target="865T3DmPXxsls_6sSnhb-2" edge="1">
          <mxGeometry relative="1" as="geometry" />
        </mxCell>
        <UserObject label="Основные функции&#xa; управляющей схемы" link="data:page/id,MwCPtWA9UEZSM_SASeTj" id="fk-MnctCyBJSVbWkX-rV-1">
          <mxCell style="fontColor=#FFFFFF;fontStyle=4;rounded=1;overflow=hidden;spacing=10;fontSize=16;labelBorderColor=default;" parent="1" vertex="1">
            <mxGeometry x="75" y="-400" width="210" height="85" as="geometry" />
          </mxCell>
        </UserObject>
        <mxCell id="qIo23gf_nuPvY0l7gyJl-1" value="&lt;div style=&quot;font-size: 14px;&quot;&gt;&lt;div style=&quot;&quot;&gt;&lt;font style=&quot;font-size: 14px;&quot;&gt;&lt;b style=&quot;&quot;&gt;&lt;i style=&quot;&quot;&gt;&lt;br&gt;&lt;/i&gt;&lt;/b&gt;&lt;/font&gt;&lt;/div&gt;&lt;div style=&quot;&quot;&gt;&lt;font style=&quot;font-size: 14px;&quot;&gt;&lt;b&gt;&lt;i&gt;Коннектор кабеля соединяется с гнездом ЭТС, чтобы&amp;nbsp;&lt;/i&gt;&lt;/b&gt;&lt;/font&gt;&lt;/div&gt;&lt;div style=&quot;&quot;&gt;&lt;font style=&quot;font-size: 14px;&quot;&gt;&lt;b&gt;&lt;i&gt;удерживать транспортное средство в недвижном состоянии&lt;/i&gt;&lt;/b&gt;&lt;/font&gt;&lt;/div&gt;&lt;/div&gt;&lt;div style=&quot;font-size: 14px;&quot;&gt;&lt;br&gt;&lt;/div&gt;" style="shape=note;whiteSpace=wrap;html=1;backgroundOutline=1;darkOpacity=0.05;align=center;" parent="1" vertex="1">
          <mxGeometry x="-780" width="532.81" height="60" as="geometry" />
        </mxCell>
        <mxCell id="rdpsurpRp2WKPjppHmbc-1" value="&lt;div style=&quot;&quot;&gt;&lt;div style=&quot;&quot;&gt;&lt;b style=&quot;&quot;&gt;&lt;i style=&quot;&quot;&gt;&lt;font style=&quot;font-size: 14px;&quot;&gt;Проверка ЭБУ станции:&lt;/font&gt;&lt;/i&gt;&lt;/b&gt;&lt;b style=&quot;background-color: initial;&quot;&gt;&lt;i&gt;&lt;font style=&quot;font-size: 14px;&quot;&gt;&amp;nbsp;вилка и розетка полностью подключены&lt;/font&gt;&lt;/i&gt;&lt;/b&gt;&lt;/div&gt;&lt;/div&gt;" style="shape=note;whiteSpace=wrap;html=1;backgroundOutline=1;darkOpacity=0.05;" parent="1" vertex="1">
          <mxGeometry x="-775.61" y="375" width="540" height="50" as="geometry" />
        </mxCell>
        <mxCell id="rdpsurpRp2WKPjppHmbc-2" value="&lt;div style=&quot;&quot;&gt;&lt;div style=&quot;&quot;&gt;&lt;b style=&quot;&quot;&gt;&lt;i style=&quot;&quot;&gt;&lt;font style=&quot;font-size: 14px;&quot;&gt;ЭБУ ЭТС, что вилка и розетка полностью подключены&lt;/font&gt;&lt;/i&gt;&lt;/b&gt;&lt;/div&gt;&lt;/div&gt;" style="shape=note;whiteSpace=wrap;html=1;backgroundOutline=1;darkOpacity=0.05;" parent="1" vertex="1">
          <mxGeometry x="-764.68" y="570" width="500" height="50" as="geometry" />
        </mxCell>
        <mxCell id="rdpsurpRp2WKPjppHmbc-3" value="&lt;div style=&quot;&quot;&gt;&lt;div style=&quot;&quot;&gt;&lt;b style=&quot;&quot;&gt;&lt;i style=&quot;&quot;&gt;&lt;font style=&quot;font-size: 14px;&quot;&gt;Проверяем, полностью ли подключен комплект зарядных устройств&lt;/font&gt;&lt;/i&gt;&lt;/b&gt;&lt;/div&gt;&lt;/div&gt;" style="shape=note;whiteSpace=wrap;html=1;backgroundOutline=1;darkOpacity=0.05;" parent="1" vertex="1">
          <mxGeometry x="-764.6800000000001" y="980" width="540" height="50" as="geometry" />
        </mxCell>
        <mxCell id="Z-neRYcPutl9Z8zEwiTY-3" style="edgeStyle=orthogonalEdgeStyle;rounded=0;orthogonalLoop=1;jettySize=auto;html=1;exitX=0.5;exitY=1;exitDx=0;exitDy=0;" parent="1" source="rdpsurpRp2WKPjppHmbc-8" edge="1">
          <mxGeometry relative="1" as="geometry">
            <mxPoint x="179.99999999999977" y="900" as="targetPoint" />
          </mxGeometry>
        </mxCell>
        <mxCell id="rdpsurpRp2WKPjppHmbc-8" value="&lt;div&gt;S3 разомкнут,&lt;/div&gt;&lt;div&gt;&amp;nbsp;CC подключен,&lt;/div&gt;&lt;div&gt;сопротивление между точкой 3 и PE измеряется как RC + RC4&lt;br&gt;&lt;/div&gt;" style="whiteSpace=wrap;html=1;" parent="1" vertex="1">
          <mxGeometry x="71.56" y="780" width="216.88" height="70" as="geometry" />
        </mxCell>
        <mxCell id="rdpsurpRp2WKPjppHmbc-10" value="&lt;div style=&quot;&quot;&gt;&lt;div style=&quot;&quot;&gt;&lt;b style=&quot;&quot;&gt;&lt;i style=&quot;&quot;&gt;&lt;font style=&quot;font-size: 14px;&quot;&gt;ЭТС готово&lt;/font&gt;&lt;/i&gt;&lt;/b&gt;&lt;/div&gt;&lt;/div&gt;" style="shape=note;whiteSpace=wrap;html=1;backgroundOutline=1;darkOpacity=0.05;" parent="1" vertex="1">
          <mxGeometry x="-599.37" y="1492.5" width="168.75" height="35" as="geometry" />
        </mxCell>
        <mxCell id="rdpsurpRp2WKPjppHmbc-11" value="&lt;div style=&quot;&quot;&gt;&lt;div style=&quot;&quot;&gt;&lt;b style=&quot;&quot;&gt;&lt;i style=&quot;&quot;&gt;&lt;font style=&quot;font-size: 14px;&quot;&gt;Зарядная станция готова&lt;/font&gt;&lt;/i&gt;&lt;/b&gt;&lt;/div&gt;&lt;/div&gt;" style="shape=note;whiteSpace=wrap;html=1;backgroundOutline=1;darkOpacity=0.05;" parent="1" vertex="1">
          <mxGeometry x="-645" y="2200" width="260" height="40" as="geometry" />
        </mxCell>
        <mxCell id="rdpsurpRp2WKPjppHmbc-12" value="&lt;span style=&quot;color: rgba(0, 0, 0, 0); font-family: monospace; font-size: 0px; text-align: start;&quot;&gt;%3CmxGraphModel%3E%3Croot%3E%3CmxCell%20id%3D%220%22%2F%3E%3CmxCell%20id%3D%221%22%20parent%3D%220%22%2F%3E%3CmxCell%20id%3D%222%22%20value%3D%22%26lt%3Bdiv%20style%3D%26quot%3Bfont-size%3A%2020px%3B%26quot%3B%26gt%3B%26lt%3Bdiv%26gt%3B%26lt%3Bb%26gt%3B%26lt%3Bi%26gt%3B%D0%9F%D1%80%D0%BE%D0%B2%D0%B5%D1%80%D1%8F%D0%B5%D0%BC%2C%20%D0%BF%D0%BE%D0%BB%D0%BD%D0%BE%D1%81%D1%82%D1%8C%D1%8E%20%D0%BB%D0%B8%20%D0%BF%D0%BE%D0%B4%D0%BA%D0%BB%D1%8E%D1%87%D0%B5%D0%BD%20%D0%BA%D0%BE%D0%BC%D0%BF%D0%BB%D0%B5%D0%BA%D1%82%20%D0%B7%D0%B0%D1%80%D1%8F%D0%B4%D0%BD%D1%8B%D1%85%20%D1%83%D1%81%D1%82%D1%80%D0%BE%D0%B9%D1%81%D1%82%D0%B2%26lt%3B%2Fi%26gt%3B%26lt%3B%2Fb%26gt%3B%26lt%3B%2Fdiv%26gt%3B%26lt%3B%2Fdiv%26gt%3B%22%20style%3D%22shape%3Dnote%3BwhiteSpace%3Dwrap%3Bhtml%3D1%3BbackgroundOutline%3D1%3BdarkOpacity%3D0.05%3B%22%20vertex%3D%221%22%20parent%3D%221%22%3E%3CmxGeometry%20x%3D%22-855%22%20y%3D%22965%22%20width%3D%22540%22%20height%3D%2250%22%20as%3D%22geometry%22%2F%3E%3C%2FmxCell%3E%3C%2Froot%3E%3C%2FmxGraphModel%3E&lt;/span&gt;&lt;span style=&quot;color: rgba(0, 0, 0, 0); font-family: monospace; font-size: 0px; text-align: start;&quot;&gt;%3CmxGraphModel%3E%3Croot%3E%3CmxCell%20id%3D%220%22%2F%3E%3CmxCell%20id%3D%221%22%20parent%3D%220%22%2F%3E%3CmxCell%20id%3D%222%22%20value%3D%22%26lt%3Bdiv%20style%3D%26quot%3Bfont-size%3A%2020px%3B%26quot%3B%26gt%3B%26lt%3Bdiv%26gt%3B%26lt%3Bb%26gt%3B%26lt%3Bi%26gt%3B%D0%9F%D1%80%D0%BE%D0%B2%D0%B5%D1%80%D1%8F%D0%B5%D0%BC%2C%20%D0%BF%D0%BE%D0%BB%D0%BD%D0%BE%D1%81%D1%82%D1%8C%D1%8E%20%D0%BB%D0%B8%20%D0%BF%D0%BE%D0%B4%D0%BA%D0%BB%D1%8E%D1%87%D0%B5%D0%BD%20%D0%BA%D0%BE%D0%BC%D0%BF%D0%BB%D0%B5%D0%BA%D1%82%20%D0%B7%D0%B0%D1%80%D1%8F%D0%B4%D0%BD%D1%8B%D1%85%20%D1%83%D1%81%D1%82%D1%80%D0%BE%D0%B9%D1%81%D1%82%D0%B2%26lt%3B%2Fi%26gt%3B%26lt%3B%2Fb%26gt%3B%26lt%3B%2Fdiv%26gt%3B%26lt%3B%2Fdiv%26gt%3B%22%20style%3D%22shape%3Dnote%3BwhiteSpace%3Dwrap%3Bhtml%3D1%3BbackgroundOutline%3D1%3BdarkOpacity%3D0.05%3B%22%20vertex%3D%221%22%20parent%3D%221%22%3E%3CmxGeometry%20x%3D%22-855%22%20y%3D%22965%22%20width%3D%22540%22%20height%3D%2250%22%20as%3D%22geometry%22%2F%3E%3C%2FmxCell%3E%3C%2Froot%3E%3C%2FmxGraphModel%3E&lt;/span&gt;" style="text;html=1;align=center;verticalAlign=middle;resizable=0;points=[];autosize=1;strokeColor=none;fillColor=none;" parent="1" vertex="1">
          <mxGeometry x="-630" y="2728" width="20" height="30" as="geometry" />
        </mxCell>
        <mxCell id="rdpsurpRp2WKPjppHmbc-13" value="&lt;div style=&quot;&quot;&gt;&lt;div style=&quot;&quot;&gt;&lt;b style=&quot;&quot;&gt;&lt;i style=&quot;&quot;&gt;&lt;font style=&quot;font-size: 14px;&quot;&gt;Ввод в работу системы зарядки&lt;/font&gt;&lt;/i&gt;&lt;/b&gt;&lt;/div&gt;&lt;/div&gt;" style="shape=note;whiteSpace=wrap;html=1;backgroundOutline=1;darkOpacity=0.05;" parent="1" vertex="1">
          <mxGeometry x="-678.75" y="2500" width="327.5" height="40" as="geometry" />
        </mxCell>
        <mxCell id="rdpsurpRp2WKPjppHmbc-22" style="edgeStyle=orthogonalEdgeStyle;rounded=0;orthogonalLoop=1;jettySize=auto;html=1;exitX=0.5;exitY=1;exitDx=0;exitDy=0;" parent="1" source="rdpsurpRp2WKPjppHmbc-15" target="rdpsurpRp2WKPjppHmbc-16" edge="1">
          <mxGeometry relative="1" as="geometry" />
        </mxCell>
        <mxCell id="rdpsurpRp2WKPjppHmbc-24" value="Да" style="edgeLabel;html=1;align=center;verticalAlign=middle;resizable=0;points=[];" parent="rdpsurpRp2WKPjppHmbc-22" vertex="1" connectable="0">
          <mxGeometry x="0.0479" y="-1" relative="1" as="geometry">
            <mxPoint as="offset" />
          </mxGeometry>
        </mxCell>
        <mxCell id="rdpsurpRp2WKPjppHmbc-15" value="ЭБУ станции определил, что комплект соединений полностью подключен и настройка макс допустимого входного тока бортового зарядного устройства завершена" style="rhombus;whiteSpace=wrap;html=1;" parent="1" vertex="1">
          <mxGeometry x="39.99999999999999" y="2970" width="279.37" height="150" as="geometry" />
        </mxCell>
        <mxCell id="rdpsurpRp2WKPjppHmbc-23" style="edgeStyle=orthogonalEdgeStyle;rounded=0;orthogonalLoop=1;jettySize=auto;html=1;exitX=0.5;exitY=1;exitDx=0;exitDy=0;entryX=0.5;entryY=0;entryDx=0;entryDy=0;" parent="1" source="rdpsurpRp2WKPjppHmbc-16" target="rdpsurpRp2WKPjppHmbc-17" edge="1">
          <mxGeometry relative="1" as="geometry" />
        </mxCell>
        <mxCell id="rdpsurpRp2WKPjppHmbc-16" value="Бортовое зарядное устройство начинает зарядку ЭТС" style="rounded=0;whiteSpace=wrap;html=1;" parent="1" vertex="1">
          <mxGeometry x="122.50000000000001" y="3250" width="120" height="60" as="geometry" />
        </mxCell>
        <mxCell id="rdpsurpRp2WKPjppHmbc-25" style="edgeStyle=orthogonalEdgeStyle;rounded=0;orthogonalLoop=1;jettySize=auto;html=1;exitX=1;exitY=0.5;exitDx=0;exitDy=0;entryX=1;entryY=0.5;entryDx=0;entryDy=0;" parent="1" source="rdpsurpRp2WKPjppHmbc-17" target="FdZrIuBGv6vU3EPVmL-b-3" edge="1">
          <mxGeometry relative="1" as="geometry">
            <Array as="points">
              <mxPoint x="490" y="3442" />
              <mxPoint x="490" y="2770" />
            </Array>
          </mxGeometry>
        </mxCell>
        <mxCell id="rdpsurpRp2WKPjppHmbc-26" value="Да" style="edgeLabel;html=1;align=center;verticalAlign=middle;resizable=0;points=[];" parent="rdpsurpRp2WKPjppHmbc-25" vertex="1" connectable="0">
          <mxGeometry x="-0.873" y="2" relative="1" as="geometry">
            <mxPoint as="offset" />
          </mxGeometry>
        </mxCell>
        <mxCell id="Z04U8jFi2-B_5d0oEj12-3" style="edgeStyle=orthogonalEdgeStyle;rounded=0;orthogonalLoop=1;jettySize=auto;html=1;exitX=0.5;exitY=1;exitDx=0;exitDy=0;entryX=0.5;entryY=0;entryDx=0;entryDy=0;" parent="1" source="rdpsurpRp2WKPjppHmbc-17" target="rdpsurpRp2WKPjppHmbc-27" edge="1">
          <mxGeometry relative="1" as="geometry" />
        </mxCell>
        <mxCell id="rdpsurpRp2WKPjppHmbc-17" value="В процессе зарядки получен ШИМ сигнал от точки 2" style="rhombus;whiteSpace=wrap;html=1;" parent="1" vertex="1">
          <mxGeometry x="87.5" y="3404" width="190" height="103" as="geometry" />
        </mxCell>
        <mxCell id="Z04U8jFi2-B_5d0oEj12-5" style="edgeStyle=orthogonalEdgeStyle;rounded=0;orthogonalLoop=1;jettySize=auto;html=1;exitX=0.5;exitY=1;exitDx=0;exitDy=0;entryX=0.5;entryY=0;entryDx=0;entryDy=0;" parent="1" source="rdpsurpRp2WKPjppHmbc-27" target="rdpsurpRp2WKPjppHmbc-29" edge="1">
          <mxGeometry relative="1" as="geometry" />
        </mxCell>
        <mxCell id="rdpsurpRp2WKPjppHmbc-27" value="Состояние соединения вилки и розетки с ЭТС подтверждается для ЭБУ ЭТС периодинческим контролем точек 2 и 3" style="rounded=0;whiteSpace=wrap;html=1;" parent="1" vertex="1">
          <mxGeometry x="58.12999999999999" y="3645" width="248.75" height="80" as="geometry" />
        </mxCell>
        <mxCell id="rdpsurpRp2WKPjppHmbc-28" value="&lt;div style=&quot;&quot;&gt;&lt;div style=&quot;&quot;&gt;&lt;b style=&quot;&quot;&gt;&lt;i style=&quot;&quot;&gt;&lt;font style=&quot;font-size: 14px;&quot;&gt;Проверка состояния подключения вилки и розетки, изменение мощности питания зарядкой станции&lt;/font&gt;&lt;/i&gt;&lt;/b&gt;&lt;/div&gt;&lt;/div&gt;" style="shape=note;whiteSpace=wrap;html=1;backgroundOutline=1;darkOpacity=0.05;" parent="1" vertex="1">
          <mxGeometry x="-775.61" y="3660" width="599.37" height="65" as="geometry" />
        </mxCell>
        <mxCell id="OtgqTg0IWu0x1teXSYlj-9" style="edgeStyle=orthogonalEdgeStyle;rounded=0;orthogonalLoop=1;jettySize=auto;html=1;exitX=0.5;exitY=1;exitDx=0;exitDy=0;entryX=0.5;entryY=0;entryDx=0;entryDy=0;" parent="1" source="rdpsurpRp2WKPjppHmbc-29" target="rdpsurpRp2WKPjppHmbc-31" edge="1">
          <mxGeometry relative="1" as="geometry" />
        </mxCell>
        <mxCell id="rdpsurpRp2WKPjppHmbc-29" value="Состояние соединения вилки и розетки с ЭТС подтверждается для ЭБУ станции периодинческим контролем точек 1 и 4" style="rounded=0;whiteSpace=wrap;html=1;" parent="1" vertex="1">
          <mxGeometry x="58.13" y="3850" width="248.75" height="80" as="geometry" />
        </mxCell>
        <mxCell id="rdpsurpRp2WKPjppHmbc-30" value="Ц&lt;span style=&quot;background-color: initial;&quot;&gt;икл контроля не превышает 50мс&lt;/span&gt;" style="text;html=1;align=center;verticalAlign=middle;resizable=0;points=[];autosize=1;strokeColor=none;fillColor=none;" parent="1" vertex="1">
          <mxGeometry x="380" y="3660" width="220" height="30" as="geometry" />
        </mxCell>
        <mxCell id="OtgqTg0IWu0x1teXSYlj-10" style="edgeStyle=orthogonalEdgeStyle;rounded=0;orthogonalLoop=1;jettySize=auto;html=1;exitX=0.5;exitY=1;exitDx=0;exitDy=0;entryX=0.5;entryY=0;entryDx=0;entryDy=0;" parent="1" source="rdpsurpRp2WKPjppHmbc-31" target="O-1TmALYl-uiyicFpdDV-3" edge="1">
          <mxGeometry relative="1" as="geometry" />
        </mxCell>
        <mxCell id="rdpsurpRp2WKPjppHmbc-31" value="ЭБУ ЭТС осуществляет непрерывное обнаружение ШИМ-сигнала в точке 2 и регулировку выходной мощности бортового зарядного устройства в реальном времени на основе работчего цикла ШИМ при его изменении" style="rounded=0;whiteSpace=wrap;html=1;" parent="1" vertex="1">
          <mxGeometry x="38.13" y="4090" width="288.75" height="100" as="geometry" />
        </mxCell>
        <mxCell id="rdpsurpRp2WKPjppHmbc-32" value="Ц&lt;span style=&quot;background-color: initial;&quot;&gt;икл контроля не превышает 50мс&lt;/span&gt;" style="text;html=1;align=center;verticalAlign=middle;resizable=0;points=[];autosize=1;strokeColor=none;fillColor=none;" parent="1" vertex="1">
          <mxGeometry x="380" y="3855" width="220" height="30" as="geometry" />
        </mxCell>
        <mxCell id="rdpsurpRp2WKPjppHmbc-33" value="Ц&lt;span style=&quot;background-color: initial;&quot;&gt;икл обнаружения не превышает 5с&lt;/span&gt;" style="text;html=1;align=center;verticalAlign=middle;resizable=0;points=[];autosize=1;strokeColor=none;fillColor=none;" parent="1" vertex="1">
          <mxGeometry x="375" y="4120" width="230" height="30" as="geometry" />
        </mxCell>
        <mxCell id="rdpsurpRp2WKPjppHmbc-34" value="&lt;div style=&quot;&quot;&gt;&lt;b style=&quot;&quot;&gt;&lt;i style=&quot;&quot;&gt;&lt;font style=&quot;font-size: 14px;&quot;&gt;Прекращение/остановка зарядки в нормальных условиях&lt;/font&gt;&lt;/i&gt;&lt;/b&gt;&lt;/div&gt;" style="shape=note;whiteSpace=wrap;html=1;backgroundOutline=1;darkOpacity=0.05;" parent="1" vertex="1">
          <mxGeometry x="-779.69" y="4470" width="529.37" height="60" as="geometry" />
        </mxCell>
        <mxCell id="Z04U8jFi2-B_5d0oEj12-9" style="edgeStyle=orthogonalEdgeStyle;rounded=0;orthogonalLoop=1;jettySize=auto;html=1;exitX=0.5;exitY=1;exitDx=0;exitDy=0;entryX=0.5;entryY=0;entryDx=0;entryDy=0;" parent="1" source="O-1TmALYl-uiyicFpdDV-3" target="O-1TmALYl-uiyicFpdDV-4" edge="1">
          <mxGeometry relative="1" as="geometry" />
        </mxCell>
        <mxCell id="aMy_s09rXomY22jvARsg-5" value="Да" style="edgeLabel;html=1;align=center;verticalAlign=middle;resizable=0;points=[];" parent="Z04U8jFi2-B_5d0oEj12-9" vertex="1" connectable="0">
          <mxGeometry x="-0.2065" y="-4" relative="1" as="geometry">
            <mxPoint x="5" as="offset" />
          </mxGeometry>
        </mxCell>
        <mxCell id="O-1TmALYl-uiyicFpdDV-3" value="Выполнены условия прекращения зарядки для ЭТС&amp;nbsp;&lt;div&gt;ИЛИ&lt;/div&gt;&lt;div&gt;Водитель подает ЭТС команду &quot;прекратить зарядку&quot;&lt;/div&gt;" style="rhombus;whiteSpace=wrap;html=1;" parent="1" vertex="1">
          <mxGeometry x="-27.49000000000001" y="4420" width="420" height="180" as="geometry" />
        </mxCell>
        <mxCell id="OtgqTg0IWu0x1teXSYlj-12" style="edgeStyle=orthogonalEdgeStyle;rounded=0;orthogonalLoop=1;jettySize=auto;html=1;exitX=0.5;exitY=1;exitDx=0;exitDy=0;entryX=0.5;entryY=0;entryDx=0;entryDy=0;" parent="1" source="O-1TmALYl-uiyicFpdDV-4" target="O-1TmALYl-uiyicFpdDV-6" edge="1">
          <mxGeometry relative="1" as="geometry" />
        </mxCell>
        <mxCell id="O-1TmALYl-uiyicFpdDV-4" value="ЭБУ ЭТС открывает S2 и переводит бортовое зарядное устройство в состояние &quot;прекращение зарядки&quot;" style="whiteSpace=wrap;html=1;" parent="1" vertex="1">
          <mxGeometry x="71.72999999999999" y="4770" width="221.56" height="110" as="geometry" />
        </mxCell>
        <mxCell id="Z04U8jFi2-B_5d0oEj12-11" value="Да" style="edgeStyle=orthogonalEdgeStyle;rounded=0;orthogonalLoop=1;jettySize=auto;html=1;exitX=0.5;exitY=1;exitDx=0;exitDy=0;entryX=0.5;entryY=0;entryDx=0;entryDy=0;" parent="1" source="O-1TmALYl-uiyicFpdDV-6" target="O-1TmALYl-uiyicFpdDV-7" edge="1">
          <mxGeometry relative="1" as="geometry" />
        </mxCell>
        <mxCell id="O-1TmALYl-uiyicFpdDV-6" value="Выполнены условия завершения зарядки, заданные оператором&amp;nbsp;&lt;div&gt;И&lt;/div&gt;&lt;div&gt;Оператор подает станции команду &quot;прекратить зарядку&quot;&lt;/div&gt;" style="rhombus;whiteSpace=wrap;html=1;" parent="1" vertex="1">
          <mxGeometry x="-27.5" y="5040" width="420" height="180" as="geometry" />
        </mxCell>
        <mxCell id="Z04U8jFi2-B_5d0oEj12-12" style="edgeStyle=orthogonalEdgeStyle;rounded=0;orthogonalLoop=1;jettySize=auto;html=1;exitX=0.5;exitY=1;exitDx=0;exitDy=0;entryX=0.5;entryY=0;entryDx=0;entryDy=0;" parent="1" source="O-1TmALYl-uiyicFpdDV-7" target="O-1TmALYl-uiyicFpdDV-8" edge="1">
          <mxGeometry relative="1" as="geometry" />
        </mxCell>
        <mxCell id="O-1TmALYl-uiyicFpdDV-7" value="ЭБУ питанием переключает S1 в состояние +12В" style="whiteSpace=wrap;html=1;" parent="1" vertex="1">
          <mxGeometry x="71.56" y="5330" width="221.56" height="90" as="geometry" />
        </mxCell>
        <mxCell id="O-1TmALYl-uiyicFpdDV-10" style="edgeStyle=orthogonalEdgeStyle;rounded=0;orthogonalLoop=1;jettySize=auto;html=1;exitX=0;exitY=0.5;exitDx=0;exitDy=0;" parent="1" source="O-1TmALYl-uiyicFpdDV-8" target="O-1TmALYl-uiyicFpdDV-9" edge="1">
          <mxGeometry relative="1" as="geometry" />
        </mxCell>
        <mxCell id="O-1TmALYl-uiyicFpdDV-12" value="Да" style="edgeLabel;html=1;align=center;verticalAlign=middle;resizable=0;points=[];" parent="O-1TmALYl-uiyicFpdDV-10" vertex="1" connectable="0">
          <mxGeometry x="0.1017" relative="1" as="geometry">
            <mxPoint y="-1" as="offset" />
          </mxGeometry>
        </mxCell>
        <mxCell id="O-1TmALYl-uiyicFpdDV-14" style="edgeStyle=orthogonalEdgeStyle;rounded=0;orthogonalLoop=1;jettySize=auto;html=1;exitX=1;exitY=0.5;exitDx=0;exitDy=0;entryX=0.5;entryY=0;entryDx=0;entryDy=0;" parent="1" source="O-1TmALYl-uiyicFpdDV-8" target="O-1TmALYl-uiyicFpdDV-13" edge="1">
          <mxGeometry relative="1" as="geometry" />
        </mxCell>
        <mxCell id="O-1TmALYl-uiyicFpdDV-15" value="Нет (в течение 3с)" style="edgeLabel;html=1;align=center;verticalAlign=middle;resizable=0;points=[];" parent="O-1TmALYl-uiyicFpdDV-14" vertex="1" connectable="0">
          <mxGeometry x="-0.0976" relative="1" as="geometry">
            <mxPoint as="offset" />
          </mxGeometry>
        </mxCell>
        <mxCell id="O-1TmALYl-uiyicFpdDV-8" value="Обнаружение размыкания S2" style="rhombus;whiteSpace=wrap;html=1;" parent="1" vertex="1">
          <mxGeometry x="78.44" y="5560" width="210" height="100" as="geometry" />
        </mxCell>
        <mxCell id="OtgqTg0IWu0x1teXSYlj-15" style="edgeStyle=orthogonalEdgeStyle;rounded=0;orthogonalLoop=1;jettySize=auto;html=1;exitX=0.5;exitY=1;exitDx=0;exitDy=0;" parent="1" source="O-1TmALYl-uiyicFpdDV-9" target="O-1TmALYl-uiyicFpdDV-16" edge="1">
          <mxGeometry relative="1" as="geometry">
            <Array as="points">
              <mxPoint x="-10" y="5890" />
              <mxPoint x="183" y="5890" />
            </Array>
          </mxGeometry>
        </mxCell>
        <mxCell id="O-1TmALYl-uiyicFpdDV-9" value="Цепь питания переменного тока отключена размыканием К1 и К2 в течение 100мс" style="whiteSpace=wrap;html=1;" parent="1" vertex="1">
          <mxGeometry x="-125" y="5745" width="230" height="60" as="geometry" />
        </mxCell>
        <mxCell id="OtgqTg0IWu0x1teXSYlj-17" style="edgeStyle=orthogonalEdgeStyle;rounded=0;orthogonalLoop=1;jettySize=auto;html=1;exitX=0.5;exitY=1;exitDx=0;exitDy=0;" parent="1" source="O-1TmALYl-uiyicFpdDV-13" target="O-1TmALYl-uiyicFpdDV-16" edge="1">
          <mxGeometry relative="1" as="geometry">
            <Array as="points">
              <mxPoint x="358" y="5890" />
              <mxPoint x="183" y="5890" />
            </Array>
          </mxGeometry>
        </mxCell>
        <mxCell id="O-1TmALYl-uiyicFpdDV-13" value="Цепь питания переменного тока отключена путем принудительного размыкания К1 и К2 под агрузкой" style="whiteSpace=wrap;html=1;" parent="1" vertex="1">
          <mxGeometry x="242.5" y="5740" width="230" height="70" as="geometry" />
        </mxCell>
        <mxCell id="O-1TmALYl-uiyicFpdDV-16" value="Электронные блокировки вилки и розетки разблокируются через 100мс" style="whiteSpace=wrap;html=1;" parent="1" vertex="1">
          <mxGeometry x="81.42" y="5980" width="202.18" height="60" as="geometry" />
        </mxCell>
        <mxCell id="3hbAnAf9H7PqeFDSavis-1" value="&lt;div style=&quot;&quot;&gt;&lt;b style=&quot;&quot;&gt;&lt;i style=&quot;&quot;&gt;&lt;font style=&quot;font-size: 14px;&quot;&gt;Прекращение/остановка зарядки в ненормальных условиях&lt;/font&gt;&lt;/i&gt;&lt;/b&gt;&lt;/div&gt;" style="shape=note;whiteSpace=wrap;html=1;backgroundOutline=1;darkOpacity=0.05;" parent="1" vertex="1">
          <mxGeometry x="-805" y="6170" width="520" height="40" as="geometry" />
        </mxCell>
        <mxCell id="tmyLZ3SQGPF__Pfs4xNL-1" style="edgeStyle=orthogonalEdgeStyle;rounded=0;orthogonalLoop=1;jettySize=auto;html=1;exitX=0.5;exitY=1;exitDx=0;exitDy=0;exitPerimeter=0;" parent="1" source="rdpsurpRp2WKPjppHmbc-28" target="rdpsurpRp2WKPjppHmbc-28" edge="1">
          <mxGeometry relative="1" as="geometry" />
        </mxCell>
        <mxCell id="F30CnMvk7mIkuqzITVK9-4" style="edgeStyle=orthogonalEdgeStyle;rounded=0;orthogonalLoop=1;jettySize=auto;html=1;exitX=0;exitY=0.5;exitDx=0;exitDy=0;exitPerimeter=0;entryX=1.001;entryY=0.471;entryDx=0;entryDy=0;entryPerimeter=0;" parent="1" source="qIo23gf_nuPvY0l7gyJl-1" edge="1">
          <mxGeometry relative="1" as="geometry">
            <mxPoint x="-969.3699999999999" y="28.980000000000018" as="targetPoint" />
            <Array as="points">
              <mxPoint x="-785" y="29" />
            </Array>
          </mxGeometry>
        </mxCell>
        <mxCell id="OtgqTg0IWu0x1teXSYlj-6" value="&lt;ol&gt;&lt;li&gt;&lt;p style=&quot;margin-left: 36pt;&quot; class=&quot;MsoNormal&quot;&gt;&lt;b&gt;&lt;span lang=&quot;EN-US&quot;&gt;Vehicle connector&lt;/span&gt;&lt;/b&gt;&lt;span lang=&quot;EN-US&quot;&gt;&lt;br&gt;&lt;/span&gt;Оригинал&lt;span lang=&quot;EN-US&quot;&gt;:&amp;nbsp;&lt;i&gt;&quot;Movable part of a vehicle coupler integral with, and intended to be attached to the charging cable.&quot;&lt;/i&gt;&lt;br&gt;&lt;/span&gt;Перевод:&amp;nbsp;&lt;b&gt;&quot;Разъем транспортного средства&quot;&lt;/b&gt;&amp;nbsp;— подвижная часть соединителя, являющаяся неотъемлемой частью зарядного кабеля и предназначенная для его подключения.&lt;/p&gt;&lt;/li&gt;&lt;li&gt;&lt;p style=&quot;margin-left: 36pt;&quot; class=&quot;MsoNormal&quot;&gt;&lt;b&gt;&lt;span lang=&quot;EN-US&quot;&gt;Vehicle inlet&lt;/span&gt;&lt;/b&gt;&lt;span lang=&quot;EN-US&quot;&gt;&lt;br&gt;&lt;/span&gt;Оригинал&lt;span lang=&quot;EN-US&quot;&gt;:&amp;nbsp;&lt;i&gt;&quot;Part of a vehicle coupler incorporated in the electric vehicle, and interconnecting cable with on-board charger or on-board traction battery.&quot;&lt;/i&gt;&lt;br&gt;&lt;/span&gt;Перевод:&amp;nbsp;&lt;b&gt;&quot;Гнездо транспортного средства&quot;&lt;/b&gt;&amp;nbsp;— часть соединителя, встроенная в электротранспортное средство, которая обеспечивает подключение кабеля к встроенному зарядному устройству или тяговой батарее.&lt;span style=&quot;&quot;&gt;&amp;nbsp;&lt;/span&gt;&lt;/p&gt;&lt;/li&gt;&lt;/ol&gt;&lt;div&gt;&lt;p class=&quot;MsoNormal&quot;&gt;&lt;span style=&quot;white-space: pre;&quot;&gt;&#x9;&lt;/span&gt;&lt;span style=&quot;white-space: pre;&quot;&gt;&#x9;&lt;/span&gt;Эти термины обозначают два элемента системы зарядки:&lt;/p&gt;&lt;ul style=&quot;margin-top: 0cm;&quot; type=&quot;disc&quot;&gt;&lt;li class=&quot;MsoNormal&quot;&gt;&lt;b&gt;Vehicle connector&lt;/b&gt;&amp;nbsp;— это разъем на конце зарядного кабеля, который подключается к автомобилю.&lt;/li&gt;&lt;li class=&quot;MsoNormal&quot;&gt;&lt;b&gt;Vehicle inlet&lt;/b&gt;&amp;nbsp;— это порт на самом автомобиле, куда подключается разъем.&lt;/li&gt;&lt;/ul&gt;&lt;p&gt;&lt;/p&gt;&lt;p class=&quot;MsoNormal&quot;&gt;&lt;span style=&quot;white-space: pre;&quot;&gt;&#x9;&lt;/span&gt;&lt;span style=&quot;white-space: pre;&quot;&gt;&#x9;&lt;/span&gt;Разъем (connector) — это активный элемент кабеля, а гнездо (inlet) — это встроенный элемент автомобиля.&lt;/p&gt;&lt;/div&gt;" style="shape=card;whiteSpace=wrap;html=1;labelBackgroundColor=none;labelBorderColor=none;textShadow=0;gradientColor=none;align=left;" parent="1" vertex="1">
          <mxGeometry x="-1670" y="-155" width="700" height="315" as="geometry" />
        </mxCell>
        <mxCell id="aMy_s09rXomY22jvARsg-11" style="edgeStyle=orthogonalEdgeStyle;rounded=0;orthogonalLoop=1;jettySize=auto;html=1;exitX=0.5;exitY=1;exitDx=0;exitDy=0;entryX=0.5;entryY=0;entryDx=0;entryDy=0;" parent="1" source="OtgqTg0IWu0x1teXSYlj-19" target="aMy_s09rXomY22jvARsg-6" edge="1">
          <mxGeometry relative="1" as="geometry" />
        </mxCell>
        <mxCell id="OtgqTg0IWu0x1teXSYlj-19" value="&lt;div&gt;&amp;nbsp;В процессе зарядки ЭБУ ЭТС определяет состояние соединения разъема кабеля и гнезда ЭТС&lt;span style=&quot;background-color: initial;&quot;&gt;&amp;nbsp;путем определения величины сопротивления&amp;nbsp;&lt;/span&gt;&lt;span style=&quot;background-color: initial;&quot;&gt;между&amp;nbsp; PE&amp;nbsp; и&amp;nbsp; точкой 3&lt;/span&gt;&lt;/div&gt;&lt;div&gt;&lt;br&gt;&lt;/div&gt;" style="whiteSpace=wrap;html=1;" parent="1" vertex="1">
          <mxGeometry x="-1.2499999999999947" y="6170" width="361.87" height="70" as="geometry" />
        </mxCell>
        <mxCell id="aMy_s09rXomY22jvARsg-12" style="edgeStyle=orthogonalEdgeStyle;rounded=0;orthogonalLoop=1;jettySize=auto;html=1;exitX=0.5;exitY=1;exitDx=0;exitDy=0;entryX=0.5;entryY=0;entryDx=0;entryDy=0;" parent="1" source="aMy_s09rXomY22jvARsg-6" target="aMy_s09rXomY22jvARsg-7" edge="1">
          <mxGeometry relative="1" as="geometry" />
        </mxCell>
        <mxCell id="aMy_s09rXomY22jvARsg-6" value="&lt;div&gt;&lt;span style=&quot;background-color: initial;&quot;&gt;установлено,&amp;nbsp; что&amp;nbsp; S3&amp;nbsp; переключается&amp;nbsp; из&amp;nbsp; состояния&amp;nbsp;&lt;/span&gt;&lt;/div&gt;&lt;div&gt;закрытия&amp;nbsp; в&amp;nbsp; состояние&amp;nbsp; открытия&amp;nbsp;&amp;nbsp;&lt;/div&gt;&lt;div&gt;ИЛИ&lt;/div&gt;&lt;div&gt;&lt;div&gt;&lt;span style=&quot;background-color: initial;&quot;&gt;установлено,&amp;nbsp; что&amp;nbsp; разъем ЭТС переключается&amp;nbsp; из&amp;nbsp; состояния&amp;nbsp;&lt;/span&gt;&lt;/div&gt;&lt;div&gt;полного соединения &lt;span style=&quot;background-color: initial;&quot;&gt;в состояние&amp;nbsp;&lt;/span&gt;&lt;span style=&quot;background-color: initial;&quot;&gt;отсутствия соединения&amp;nbsp; &amp;nbsp;&lt;/span&gt;&lt;/div&gt;&lt;/div&gt;" style="rhombus;whiteSpace=wrap;html=1;" parent="1" vertex="1">
          <mxGeometry x="-85.63" y="6340" width="530" height="170" as="geometry" />
        </mxCell>
        <mxCell id="aMy_s09rXomY22jvARsg-13" style="edgeStyle=orthogonalEdgeStyle;rounded=0;orthogonalLoop=1;jettySize=auto;html=1;exitX=0.5;exitY=1;exitDx=0;exitDy=0;entryX=0.5;entryY=0;entryDx=0;entryDy=0;" parent="1" source="aMy_s09rXomY22jvARsg-7" target="aMy_s09rXomY22jvARsg-8" edge="1">
          <mxGeometry relative="1" as="geometry" />
        </mxCell>
        <mxCell id="aMy_s09rXomY22jvARsg-7" value="&lt;br&gt;&lt;div style=&quot;forced-color-adjust: none; border-color: rgb(0, 0, 0); color: rgb(240, 240, 240); font-family: Helvetica; font-size: 12px; font-style: normal; font-variant-ligatures: normal; font-variant-caps: normal; font-weight: 400; letter-spacing: normal; orphans: 2; text-align: center; text-indent: 0px; text-transform: none; widows: 2; word-spacing: 0px; -webkit-text-stroke-width: 0px; white-space: normal; background-color: rgb(27, 29, 30); text-decoration-thickness: initial; text-decoration-style: initial; text-decoration-color: initial;&quot;&gt;&lt;span style=&quot;forced-color-adjust: none; border-color: rgb(0, 0, 0); background-color: initial;&quot;&gt;ЭБУ ЭТС дает команду бортовому&amp;nbsp;&lt;/span&gt;&lt;/div&gt;&lt;div style=&quot;forced-color-adjust: none; border-color: rgb(0, 0, 0); color: rgb(240, 240, 240); font-family: Helvetica; font-size: 12px; font-style: normal; font-variant-ligatures: normal; font-variant-caps: normal; font-weight: 400; letter-spacing: normal; orphans: 2; text-align: center; text-indent: 0px; text-transform: none; widows: 2; word-spacing: 0px; -webkit-text-stroke-width: 0px; white-space: normal; background-color: rgb(27, 29, 30); text-decoration-thickness: initial; text-decoration-style: initial; text-decoration-color: initial;&quot;&gt;зарядному устройству прекратить зарядку в течение 100 мс&lt;/div&gt;&lt;div&gt;&lt;br&gt;&lt;/div&gt;" style="whiteSpace=wrap;html=1;" parent="1" vertex="1">
          <mxGeometry x="9.69" y="6600" width="339.99" height="60" as="geometry" />
        </mxCell>
        <mxCell id="aMy_s09rXomY22jvARsg-10" style="edgeStyle=orthogonalEdgeStyle;rounded=0;orthogonalLoop=1;jettySize=auto;html=1;exitX=0.5;exitY=1;exitDx=0;exitDy=0;entryX=0.5;entryY=0;entryDx=0;entryDy=0;" parent="1" source="aMy_s09rXomY22jvARsg-8" target="aMy_s09rXomY22jvARsg-9" edge="1">
          <mxGeometry relative="1" as="geometry" />
        </mxCell>
        <mxCell id="aMy_s09rXomY22jvARsg-14" value="Да" style="edgeLabel;html=1;align=center;verticalAlign=middle;resizable=0;points=[];" parent="aMy_s09rXomY22jvARsg-10" vertex="1" connectable="0">
          <mxGeometry x="-0.1249" relative="1" as="geometry">
            <mxPoint as="offset" />
          </mxGeometry>
        </mxCell>
        <mxCell id="aMy_s09rXomY22jvARsg-17" style="edgeStyle=orthogonalEdgeStyle;rounded=0;orthogonalLoop=1;jettySize=auto;html=1;exitX=1;exitY=0.5;exitDx=0;exitDy=0;entryX=1;entryY=0.5;entryDx=0;entryDy=0;" parent="1" source="aMy_s09rXomY22jvARsg-8" target="aMy_s09rXomY22jvARsg-16" edge="1">
          <mxGeometry relative="1" as="geometry" />
        </mxCell>
        <mxCell id="aMy_s09rXomY22jvARsg-18" value="Нет" style="edgeLabel;html=1;align=center;verticalAlign=middle;resizable=0;points=[];" parent="aMy_s09rXomY22jvARsg-17" vertex="1" connectable="0">
          <mxGeometry x="-0.237" y="2" relative="1" as="geometry">
            <mxPoint x="-1" y="-65" as="offset" />
          </mxGeometry>
        </mxCell>
        <mxCell id="aMy_s09rXomY22jvARsg-8" value="Имеется ли переключатель S2?" style="rhombus;whiteSpace=wrap;html=1;" parent="1" vertex="1">
          <mxGeometry x="60.32" y="6740" width="240" height="90" as="geometry" />
        </mxCell>
        <mxCell id="aMy_s09rXomY22jvARsg-19" style="edgeStyle=orthogonalEdgeStyle;rounded=0;orthogonalLoop=1;jettySize=auto;html=1;exitX=0.5;exitY=1;exitDx=0;exitDy=0;entryX=0.5;entryY=0;entryDx=0;entryDy=0;" parent="1" source="aMy_s09rXomY22jvARsg-9" target="aMy_s09rXomY22jvARsg-16" edge="1">
          <mxGeometry relative="1" as="geometry" />
        </mxCell>
        <mxCell id="aMy_s09rXomY22jvARsg-9" value="Открыть S2 (подача тока прекращена)" style="whiteSpace=wrap;html=1;" parent="1" vertex="1">
          <mxGeometry x="119.36999999999999" y="6910" width="120" height="60" as="geometry" />
        </mxCell>
        <mxCell id="aMy_s09rXomY22jvARsg-31" style="edgeStyle=orthogonalEdgeStyle;rounded=0;orthogonalLoop=1;jettySize=auto;html=1;exitX=0.5;exitY=1;exitDx=0;exitDy=0;" parent="1" source="aMy_s09rXomY22jvARsg-16" target="aMy_s09rXomY22jvARsg-21" edge="1">
          <mxGeometry relative="1" as="geometry" />
        </mxCell>
        <mxCell id="aMy_s09rXomY22jvARsg-16" value="&lt;div&gt;&amp;nbsp;В&amp;nbsp; процессе&amp;nbsp; зарядки ЭБУ ЭТС обнаруживает&amp;nbsp; ШИМ-сигнал точки&lt;span style=&quot;background-color: initial;&quot;&gt;&amp;nbsp;2&amp;nbsp;&lt;/span&gt;&lt;/div&gt;" style="whiteSpace=wrap;html=1;" parent="1" vertex="1">
          <mxGeometry x="85.62" y="7070" width="187.5" height="60" as="geometry" />
        </mxCell>
        <mxCell id="aMy_s09rXomY22jvARsg-41" style="edgeStyle=orthogonalEdgeStyle;rounded=0;orthogonalLoop=1;jettySize=auto;html=1;exitX=0.5;exitY=1;exitDx=0;exitDy=0;entryX=0.5;entryY=0;entryDx=0;entryDy=0;" parent="1" source="aMy_s09rXomY22jvARsg-20" target="aMy_s09rXomY22jvARsg-37" edge="1">
          <mxGeometry relative="1" as="geometry" />
        </mxCell>
        <mxCell id="aMy_s09rXomY22jvARsg-20" value="&lt;div&gt;&amp;nbsp;Во&amp;nbsp; время&amp;nbsp; процесса&amp;nbsp; зарядки&amp;nbsp; блок&amp;nbsp; управления&amp;nbsp; питанием измеряет значение напряжения в точке 1&lt;/div&gt;" style="whiteSpace=wrap;html=1;" parent="1" vertex="1">
          <mxGeometry x="70.31" y="7930" width="218.12" height="50" as="geometry" />
        </mxCell>
        <mxCell id="aMy_s09rXomY22jvARsg-30" style="edgeStyle=orthogonalEdgeStyle;rounded=0;orthogonalLoop=1;jettySize=auto;html=1;exitX=0.5;exitY=1;exitDx=0;exitDy=0;entryX=0.5;entryY=0;entryDx=0;entryDy=0;" parent="1" source="aMy_s09rXomY22jvARsg-21" target="aMy_s09rXomY22jvARsg-27" edge="1">
          <mxGeometry relative="1" as="geometry" />
        </mxCell>
        <mxCell id="aMy_s09rXomY22jvARsg-21" value="Обнаруживаемый ШИМ сигнал прервался" style="rhombus;whiteSpace=wrap;html=1;" parent="1" vertex="1">
          <mxGeometry x="95.32" y="7200" width="170" height="110" as="geometry" />
        </mxCell>
        <mxCell id="aMy_s09rXomY22jvARsg-32" style="edgeStyle=orthogonalEdgeStyle;rounded=0;orthogonalLoop=1;jettySize=auto;html=1;exitX=0.5;exitY=1;exitDx=0;exitDy=0;" parent="1" source="aMy_s09rXomY22jvARsg-25" target="aMy_s09rXomY22jvARsg-26" edge="1">
          <mxGeometry relative="1" as="geometry" />
        </mxCell>
        <mxCell id="aMy_s09rXomY22jvARsg-36" value="Да" style="edgeLabel;html=1;align=center;verticalAlign=middle;resizable=0;points=[];" parent="aMy_s09rXomY22jvARsg-32" vertex="1" connectable="0">
          <mxGeometry x="-0.0586" relative="1" as="geometry">
            <mxPoint as="offset" />
          </mxGeometry>
        </mxCell>
        <mxCell id="aMy_s09rXomY22jvARsg-25" value="Имеется ли переключатель S2?" style="rhombus;whiteSpace=wrap;html=1;" parent="1" vertex="1">
          <mxGeometry x="59.67999999999998" y="7570" width="240" height="90" as="geometry" />
        </mxCell>
        <mxCell id="aMy_s09rXomY22jvARsg-40" style="edgeStyle=orthogonalEdgeStyle;rounded=0;orthogonalLoop=1;jettySize=auto;html=1;exitX=0.5;exitY=1;exitDx=0;exitDy=0;entryX=0.5;entryY=0;entryDx=0;entryDy=0;" parent="1" source="aMy_s09rXomY22jvARsg-26" target="aMy_s09rXomY22jvARsg-20" edge="1">
          <mxGeometry relative="1" as="geometry" />
        </mxCell>
        <mxCell id="aMy_s09rXomY22jvARsg-26" value="Открыть S2 (подача тока прекращена)" style="whiteSpace=wrap;html=1;" parent="1" vertex="1">
          <mxGeometry x="119.37" y="7760" width="120" height="60" as="geometry" />
        </mxCell>
        <mxCell id="aMy_s09rXomY22jvARsg-39" style="edgeStyle=orthogonalEdgeStyle;rounded=0;orthogonalLoop=1;jettySize=auto;html=1;exitX=0.5;exitY=1;exitDx=0;exitDy=0;entryX=0.5;entryY=0;entryDx=0;entryDy=0;" parent="1" source="aMy_s09rXomY22jvARsg-27" target="aMy_s09rXomY22jvARsg-25" edge="1">
          <mxGeometry relative="1" as="geometry" />
        </mxCell>
        <mxCell id="aMy_s09rXomY22jvARsg-27" value="&lt;br&gt;&lt;div style=&quot;forced-color-adjust: none; border-color: rgb(0, 0, 0); color: rgb(240, 240, 240); font-family: Helvetica; font-size: 12px; font-style: normal; font-variant-ligatures: normal; font-variant-caps: normal; font-weight: 400; letter-spacing: normal; orphans: 2; text-align: center; text-indent: 0px; text-transform: none; widows: 2; word-spacing: 0px; -webkit-text-stroke-width: 0px; white-space: normal; background-color: rgb(27, 29, 30); text-decoration-thickness: initial; text-decoration-style: initial; text-decoration-color: initial;&quot;&gt;&lt;span style=&quot;forced-color-adjust: none; border-color: rgb(0, 0, 0); background-color: initial;&quot;&gt;ЭБУ ЭТС дает команду бортовому&amp;nbsp;&lt;/span&gt;&lt;/div&gt;&lt;div style=&quot;forced-color-adjust: none; border-color: rgb(0, 0, 0); color: rgb(240, 240, 240); font-family: Helvetica; font-size: 12px; font-style: normal; font-variant-ligatures: normal; font-variant-caps: normal; font-weight: 400; letter-spacing: normal; orphans: 2; text-align: center; text-indent: 0px; text-transform: none; widows: 2; word-spacing: 0px; -webkit-text-stroke-width: 0px; white-space: normal; background-color: rgb(27, 29, 30); text-decoration-thickness: initial; text-decoration-style: initial; text-decoration-color: initial;&quot;&gt;зарядному устройству прекратить зарядку в течение 3с&lt;/div&gt;&lt;div&gt;&lt;br&gt;&lt;/div&gt;" style="whiteSpace=wrap;html=1;" parent="1" vertex="1">
          <mxGeometry x="84.06" y="7410" width="190.63" height="60" as="geometry" />
        </mxCell>
        <mxCell id="aMy_s09rXomY22jvARsg-42" style="edgeStyle=orthogonalEdgeStyle;rounded=0;orthogonalLoop=1;jettySize=auto;html=1;exitX=0.5;exitY=1;exitDx=0;exitDy=0;entryX=0.5;entryY=0;entryDx=0;entryDy=0;" parent="1" source="aMy_s09rXomY22jvARsg-37" target="aMy_s09rXomY22jvARsg-38" edge="1">
          <mxGeometry relative="1" as="geometry" />
        </mxCell>
        <mxCell id="aMy_s09rXomY22jvARsg-37" value="&lt;div&gt;&lt;span style=&quot;background-color: initial;&quot;&gt;значение напряжения в точке 1 составляет 12 В ИЛИ 9 В ИЛИ&lt;/span&gt;&lt;span style=&quot;background-color: initial;&quot;&gt;&amp;nbsp;любое состояние, отличное от 6 В&amp;nbsp;&lt;/span&gt;&lt;/div&gt;" style="rhombus;whiteSpace=wrap;html=1;" parent="1" vertex="1">
          <mxGeometry x="4.369999999999996" y="8080" width="350" height="130" as="geometry" />
        </mxCell>
        <mxCell id="aMy_s09rXomY22jvARsg-45" style="edgeStyle=orthogonalEdgeStyle;rounded=0;orthogonalLoop=1;jettySize=auto;html=1;exitX=0.5;exitY=1;exitDx=0;exitDy=0;entryX=0.5;entryY=0;entryDx=0;entryDy=0;" parent="1" source="aMy_s09rXomY22jvARsg-38" target="aMy_s09rXomY22jvARsg-43" edge="1">
          <mxGeometry relative="1" as="geometry" />
        </mxCell>
        <mxCell id="aMy_s09rXomY22jvARsg-38" value="&lt;div&gt;&amp;nbsp;Блок&amp;nbsp; управления питанием отключает цепь питания&amp;nbsp; переменного тока в&amp;nbsp;&lt;span style=&quot;background-color: initial;&quot;&gt;течение 100 мс&lt;/span&gt;&lt;/div&gt;" style="whiteSpace=wrap;html=1;" parent="1" vertex="1">
          <mxGeometry x="40" y="8290" width="280.78" height="50" as="geometry" />
        </mxCell>
        <mxCell id="aMy_s09rXomY22jvARsg-46" style="edgeStyle=orthogonalEdgeStyle;rounded=0;orthogonalLoop=1;jettySize=auto;html=1;exitX=0.5;exitY=1;exitDx=0;exitDy=0;entryX=0.5;entryY=0;entryDx=0;entryDy=0;" parent="1" source="aMy_s09rXomY22jvARsg-43" target="aMy_s09rXomY22jvARsg-44" edge="1">
          <mxGeometry relative="1" as="geometry" />
        </mxCell>
        <mxCell id="aMy_s09rXomY22jvARsg-43" value="&lt;div&gt;обнаружено, что вилка и розетка переходят&amp;nbsp; из&amp;nbsp; состояния полного соединения в состояние&amp;nbsp;&lt;span style=&quot;background-color: initial;&quot;&gt;разъединения&amp;nbsp;&lt;/span&gt;&lt;/div&gt;" style="rhombus;whiteSpace=wrap;html=1;" parent="1" vertex="1">
          <mxGeometry x="55.39" y="8450" width="250" height="130" as="geometry" />
        </mxCell>
        <mxCell id="aMy_s09rXomY22jvARsg-49" style="edgeStyle=orthogonalEdgeStyle;rounded=0;orthogonalLoop=1;jettySize=auto;html=1;exitX=0.5;exitY=1;exitDx=0;exitDy=0;entryX=0.5;entryY=0;entryDx=0;entryDy=0;" parent="1" source="aMy_s09rXomY22jvARsg-44" target="aMy_s09rXomY22jvARsg-47" edge="1">
          <mxGeometry relative="1" as="geometry" />
        </mxCell>
        <mxCell id="aMy_s09rXomY22jvARsg-44" value="&lt;div&gt;&lt;span style=&quot;background-color: initial;&quot;&gt;блок управления питанием дает команду S1 переключиться в состояние соединения +12&amp;nbsp;&lt;/span&gt;&lt;span style=&quot;background-color: initial;&quot;&gt;В и&lt;/span&gt;&lt;/div&gt;&lt;div&gt;&lt;span style=&quot;background-color: initial;&quot;&gt;отключить цепь питания переменного тока в течение 100 мс&lt;/span&gt;&lt;br&gt;&lt;/div&gt;&lt;div&gt;&lt;br&gt;&lt;/div&gt;" style="whiteSpace=wrap;html=1;" parent="1" vertex="1">
          <mxGeometry x="6.709999999999994" y="8688" width="345.31" height="80" as="geometry" />
        </mxCell>
        <mxCell id="aMy_s09rXomY22jvARsg-51" style="edgeStyle=orthogonalEdgeStyle;rounded=0;orthogonalLoop=1;jettySize=auto;html=1;exitX=0.5;exitY=1;exitDx=0;exitDy=0;entryX=0.5;entryY=0;entryDx=0;entryDy=0;" parent="1" source="aMy_s09rXomY22jvARsg-47" target="aMy_s09rXomY22jvARsg-48" edge="1">
          <mxGeometry relative="1" as="geometry" />
        </mxCell>
        <mxCell id="aMy_s09rXomY22jvARsg-47" value="Сработало устройство защиты от утечки тока (RCD)" style="rhombus;whiteSpace=wrap;html=1;" parent="1" vertex="1">
          <mxGeometry x="74.84" y="8890" width="210.31" height="90" as="geometry" />
        </mxCell>
        <mxCell id="aMy_s09rXomY22jvARsg-48" value="&amp;nbsp;зарядная станция немедленно прекращает зарядку, отключает контакты&lt;div&gt;&amp;nbsp;K1 и K2, и размыкает S2.&lt;/div&gt;" style="whiteSpace=wrap;html=1;" parent="1" vertex="1">
          <mxGeometry x="86.71" y="9080" width="185.95" height="70" as="geometry" />
        </mxCell>
        <mxCell id="aMy_s09rXomY22jvARsg-52" value="ОСТАЛОСЬ&amp;nbsp;&lt;span style=&quot;color: rgb(246, 248, 250); font-family: system-ui, sans-serif, &amp;quot;Apple Color Emoji&amp;quot;, &amp;quot;Segoe UI&amp;quot;, &amp;quot;Segoe UI Emoji&amp;quot;, &amp;quot;Segoe UI Symbol&amp;quot;; font-size: 14px; font-weight: 600; text-align: start; text-wrap: wrap; background-color: rgb(36, 41, 46);&quot;&gt;A.3.10.7 -&amp;nbsp;&lt;/span&gt;&lt;span style=&quot;color: rgb(246, 248, 250); font-family: system-ui, sans-serif, &amp;quot;Apple Color Emoji&amp;quot;, &amp;quot;Segoe UI&amp;quot;, &amp;quot;Segoe UI Emoji&amp;quot;, &amp;quot;Segoe UI Symbol&amp;quot;; font-size: 14px; font-weight: 600; text-align: start; text-wrap: wrap; background-color: rgb(36, 41, 46);&quot;&gt;A.3.10.9&lt;/span&gt;" style="text;html=1;align=center;verticalAlign=middle;resizable=0;points=[];autosize=1;strokeColor=none;fillColor=none;" parent="1" vertex="1">
          <mxGeometry x="40" y="9218" width="200" height="30" as="geometry" />
        </mxCell>
      </root>
    </mxGraphModel>
  </diagram>
</mxfile>
